<?xml version="1.0" encoding="UTF-8" standalone="no"?>
<svg
   xmlns:dc="http://purl.org/dc/elements/1.1/"
   xmlns:cc="http://creativecommons.org/ns#"
   xmlns:rdf="http://www.w3.org/1999/02/22-rdf-syntax-ns#"
   xmlns:svg="http://www.w3.org/2000/svg"
   xmlns="http://www.w3.org/2000/svg"
   xmlns:sodipodi="http://sodipodi.sourceforge.net/DTD/sodipodi-0.dtd"
   xmlns:inkscape="http://www.inkscape.org/namespaces/inkscape"
   width="140"
   height="140"
   viewBox="-60 -100 590 590"
   version="1.1"
   id="svg2496"
   sodipodi:docname="agile_small.svg"
   inkscape:version="1.0.2 (e86c870879, 2021-01-15)">
  <metadata
     id="metadata2502">
    <rdf:RDF>
      <cc:Work
         rdf:about="">
        <dc:format>image/svg+xml</dc:format>
        <dc:type
           rdf:resource="http://purl.org/dc/dcmitype/StillImage" />
      </cc:Work>
    </rdf:RDF>
  </metadata>
  <defs
     id="defs2500" />
  <sodipodi:namedview
     pagecolor="#ffffff"
     bordercolor="#666666"
     borderopacity="1"
     objecttolerance="10"
     gridtolerance="10"
     guidetolerance="10"
     inkscape:pageopacity="0"
     inkscape:pageshadow="2"
     inkscape:window-width="1920"
     inkscape:window-height="1005"
     id="namedview2498"
     showgrid="false"
     inkscape:zoom="5.1071429"
     inkscape:cx="66.671329"
     inkscape:cy="70"
     inkscape:window-x="0"
     inkscape:window-y="0"
     inkscape:window-maximized="1"
     inkscape:current-layer="svg2496" />
  <title
     id="title2464">Agile Service Information</title>
  <path
     d="M10,372.5h405c2.602-0.001,5.159-1.016,7.071-2.929l65-65c1.912-1.913,2.904-4.47,2.905-7.071H490v-245         c0-5.522-4.477-10-10-10H10c-5.523,0-10,4.478-10,10v310C0,368.022,4.477,372.5,10,372.5z M425,338.357V307.5h30.858L425,338.357         z M20,62.5h450v225h-55c-5.523,0-10,4.478-10,10v55H20V62.5z"
     id="path2466"
     style="fill:#2aa198;fill-opacity:1;stroke-width:0.99878571;stroke-miterlimit:4;stroke-dasharray:none;stroke:#2aa198;stroke-opacity:1" />
  <path
     d="M350,92.5H250c-5.523,0-10,4.478-10,10v15h-25c-5.523,0-10,4.478-10,10v75h-80v-35h55c5.523,0,10-4.478,10-10v-60         c0-5.522-4.477-10-10-10H60c-5.523,0-10,4.478-10,10v60c0,5.522,4.477,10,10,10h45v45c0,5.522,4.477,10,10,10h90v70         c0,5.522,4.477,10,10,10h25v10c0,5.522,4.477,10,10,10h100c5.523,0,10-4.478,10-10v-50c0-5.522-4.477-10-10-10H250         c-5.523,0-10,4.478-10,10v20h-15v-60h15v10c0,5.522,4.477,10,10,10h100c5.523,0,10-4.478,10-10v-50c0-5.522-4.477-10-10-10H250         c-5.523,0-10,4.478-10,10v20h-15v-65h15v15c0,5.522,4.477,10,10,10h100c5.523,0,10-4.478,10-10v-50         C360,96.978,355.523,92.5,350,92.5z M70,147.5v-40h100v40H70z M260,272.5h80v30h-80V272.5z M260,192.5h80v30h-80V192.5z          M340,142.5h-80v-30h80V142.5z"
     id="path2468"
     style="fill:#2aa198;fill-opacity:1;stroke-width:0.99878571;stroke-miterlimit:4;stroke-dasharray:none;stroke:#2aa198;stroke-opacity:1" />
  <rect
     x="50"
     y="247.5"
     width="75"
     height="20"
     id="rect2470"
     style="fill:#2aa198;fill-opacity:1;stroke-width:0.99878571;stroke-miterlimit:4;stroke-dasharray:none;stroke:#2aa198;stroke-opacity:1" />
  <rect
     x="50"
     y="277.5"
     width="75"
     height="20"
     id="rect2472"
     style="fill:#2aa198;fill-opacity:1;stroke-width:0.99878571;stroke-miterlimit:4;stroke-dasharray:none;stroke:#2aa198;stroke-opacity:1" />
  <rect
     x="50"
     y="307.5"
     width="130"
     height="20"
     id="rect2474"
     style="fill:#2aa198;fill-opacity:1;stroke-width:0.99878571;stroke-miterlimit:4;stroke-dasharray:none;stroke:#2aa198;stroke-opacity:1" />
  <rect
     x="135"
     y="247.5"
     width="20"
     height="20"
     id="rect2476"
     style="fill:#2aa198;fill-opacity:1;stroke-width:0.99878571;stroke-miterlimit:4;stroke-dasharray:none;stroke:#2aa198;stroke-opacity:1" />
  <rect
     x="380"
     y="92.5"
     width="25"
     height="20"
     id="rect2478"
     style="fill:#2aa198;fill-opacity:1;stroke-width:0.99878571;stroke-miterlimit:4;stroke-dasharray:none;stroke:#2aa198;stroke-opacity:1" />
  <rect
     x="420"
     y="92.5"
     width="25"
     height="20"
     id="rect2480"
     style="fill:#2aa198;fill-opacity:1;stroke-width:0.99878571;stroke-miterlimit:4;stroke-dasharray:none;stroke:#2aa198;stroke-opacity:1" />
  <rect
     x="380"
     y="122.5"
     width="25"
     height="20"
     id="rect2482"
     style="fill:#2aa198;fill-opacity:1;stroke-width:0.99878571;stroke-miterlimit:4;stroke-dasharray:none;stroke:#2aa198;stroke-opacity:1" />
  <rect
     x="420"
     y="122.5"
     width="25"
     height="20"
     id="rect2484"
     style="fill:#2aa198;fill-opacity:1;stroke-width:0.99878571;stroke-miterlimit:4;stroke-dasharray:none;stroke:#2aa198;stroke-opacity:1" />
  <rect
     x="380"
     y="152.5"
     width="25"
     height="20"
     id="rect2486"
     style="fill:#2aa198;fill-opacity:1;stroke-width:0.99878571;stroke-miterlimit:4;stroke-dasharray:none;stroke:#2aa198;stroke-opacity:1" />
  <rect
     x="420"
     y="152.5"
     width="25"
     height="20"
     id="rect2488"
     style="fill:#2aa198;fill-opacity:1;stroke-width:0.99878571;stroke-miterlimit:4;stroke-dasharray:none;stroke:#2aa198;stroke-opacity:1" />
  <rect
     x="380"
     y="182.5"
     width="25"
     height="20"
     id="rect2490"
     style="fill:#2aa198;fill-opacity:1;stroke-width:0.99878571;stroke-miterlimit:4;stroke-dasharray:none;stroke:#2aa198;stroke-opacity:1" />
  <rect
     x="420"
     y="182.5"
     width="25"
     height="20"
     id="rect2492"
     style="fill:#2aa198;fill-opacity:1;stroke-width:0.99878571;stroke-miterlimit:4;stroke-dasharray:none;stroke:#2aa198;stroke-opacity:1" />
  <path
     d="M483.162,408.013l-60-20c-1.033-0.344-2.1-0.498-3.162-0.498V387.5H10c-5.523,0-10,4.478-10,10v40         c0,5.522,4.477,10,10,10h410h0.001c1.061,0,2.129-0.169,3.161-0.513l60-20c4.083-1.361,6.838-5.183,6.838-9.487         C490,413.196,487.246,409.374,483.162,408.013z M60,427.5H20v-20h40V427.5z M410,427.5H80v-20h330V427.5z M430,423.626v-12.252         l18.377,6.126L430,423.626z"
     id="path2494"
     style="fill:#2aa198;fill-opacity:1;stroke-width:0.99878571;stroke-miterlimit:4;stroke-dasharray:none;stroke:#2aa198;stroke-opacity:1" />
</svg>
