<?xml version="1.0" encoding="UTF-8" standalone="no"?>
<svg
   xmlns:dc="http://purl.org/dc/elements/1.1/"
   xmlns:cc="http://creativecommons.org/ns#"
   xmlns:rdf="http://www.w3.org/1999/02/22-rdf-syntax-ns#"
   xmlns:svg="http://www.w3.org/2000/svg"
   xmlns="http://www.w3.org/2000/svg"
   xmlns:sodipodi="http://sodipodi.sourceforge.net/DTD/sodipodi-0.dtd"
   xmlns:inkscape="http://www.inkscape.org/namespaces/inkscape"
   version="1.1"
   id="Capa_1"
   x="0px"
   y="0px"
   viewBox="-10 0 75 65"
   width="140"
   height="140"
   fill="currentColor"
   xml:space="preserve"
   sodipodi:docname="runner-svgrepo-com.svg"
   inkscape:version="1.0.2 (e86c870879, 2021-01-15)"><metadata
   id="metadata45"><rdf:RDF><cc:Work
       rdf:about=""><dc:format>image/svg+xml</dc:format><dc:type
         rdf:resource="http://purl.org/dc/dcmitype/StillImage" /></cc:Work></rdf:RDF></metadata><defs
   id="defs43" /><sodipodi:namedview
   pagecolor="#ffffff"
   bordercolor="#666666"
   borderopacity="1"
   objecttolerance="10"
   gridtolerance="10"
   guidetolerance="10"
   inkscape:pageopacity="0"
   inkscape:pageshadow="2"
   inkscape:window-width="1920"
   inkscape:window-height="1005"
   id="namedview41"
   showgrid="false"
   inkscape:zoom="11.223608"
   inkscape:cx="31.852501"
   inkscape:cy="31.852501"
   inkscape:window-x="0"
   inkscape:window-y="0"
   inkscape:window-maximized="1"
   inkscape:current-layer="Capa_1" />
<g
   id="g8"
   transform="matrix(-1,0,0,1,63.703986,0)">
	<g
   id="g6">
		<path
   style="fill:#839496;fill-opacity:1"
   d="m 23.926,12.752 c 3.47,-0.402 5.963,-3.572 5.564,-7.082 -0.396,-3.51 -3.532,-6.029 -7,-5.628 -3.47,0.402 -5.961,3.572 -5.564,7.082 0.395,3.51 3.53,6.029 7,5.628 z"
   id="path2" />
		<path
   style="fill:#839496;fill-opacity:1"
   d="M 60.258,57.826 C 55.348,49.395 40.077,22.155 37.542,17.709 c 4.949,-1.597 9.471,-0.139 13.027,4.899 2.892,4.098 9.656,0.169 6.729,-3.979 C 50.416,8.879 40.152,6.458 29.877,12.628 29.447,12.885 27.522,13.961 27.088,14.222 20.697,18.057 14.763,17.331 10.329,11.049 7.434,6.95 0.67,10.881 3.598,15.028 c 5.659,8.014 13.601,11.072 21.957,8.481 2.62,4.552 5.109,9.187 7.499,13.866 -3.533,1.825 -6.805,4.103 -9.846,6.781 -1.796,1.583 -1.501,3.659 -0.295,5.058 0.292,0.638 9.585,6.565 13.61,9.009 4.319,2.624 8.237,-4.194 3.934,-6.807 -2.602,-1.579 -5.202,-3.16 -7.803,-4.741 2.505,-1.707 8.94,-4.523 9.281,-4.795 3.862,6.646 7.732,13.282 11.595,19.924 2.542,4.376 9.281,0.411 6.728,-3.978 z"
   id="path4" />
	</g>
</g>
</svg>
