<?xml version="1.0" standalone="no"?>
<!DOCTYPE svg PUBLIC "-//W3C//DTD SVG 20010904//EN" "http://www.w3.org/TR/2001/REC-SVG-20010904/DTD/svg10.dtd">
<!-- Created using Karbon, part of Calligra: http://www.calligra.org/karbon -->
<svg xmlns="http://www.w3.org/2000/svg" xmlns:xlink="http://www.w3.org/1999/xlink" width="265pt" height="185pt">

<g id="layer0">
  <path id="shape0" transform="translate(210.772, 153.788)" fill="#ffffff" d="M0 61.7539L104.187 61.7539L124.32 30.9062L104.187 0L0 0L0 61.7539"/>
  <path id="shape1" transform="translate(210.772, 165.316)" fill="#ffffff" d="M0 61.7539L104.187 61.7539L124.32 30.9063L104.187 0L0 0L0 61.7539"/>
  <path id="shape2" transform="translate(222.3, 165.316)" fill="#ffffff" d="M0 61.7539L104.187 61.7539L124.32 30.9063L104.187 0L0 0L0 61.7539"/>
  <path id="shape3" transform="translate(222.3, 153.788)" fill="#ffffff" d="M0 61.7539L104.187 61.7539L124.32 30.9062L104.187 0L0 0L0 61.7539"/>
  <path id="shape4" transform="translate(226.417, 159.554)" fill="#ffffff" d="M0 61.75L104.184 61.75L124.32 30.9023L104.184 0L0 0L0 61.75"/>
  <path id="shape5" transform="translate(216.538, 159.554)" fill="#54a4a6" d="M0 61.75L104.184 61.75L124.32 30.9023L104.184 0L0 0L0 61.75"/>
  <g id="group0" transform="translate(227.886, 138.354)" fill="none" clip-path="url(#clippath0)">
   <g id="group1" transform="" fill="none" clip-path="url(#clippath1)">
    <g id="group2" transform="" fill="none" clip-path="url(#clippath2)">
     <path id="shape6" transform="translate(-11.1096, -77.1048)" fill="#0ab4bb" d="M64.5664 3.25391L28.7344 0L8.57031 29.2656C10.2539 33.75 12.793 42.5039 11.4922 53.4492C9.85156 67.2109 3.10937 76.5391 0 80.293L34.3086 90.5664L42.6016 125.656C49.6328 118.215 68.957 95.8867 73.1016 61.1563C76.3398 34.1211 68.7773 12.9727 64.5664 3.25391ZM64.5664 3.25391"/>
    </g>
   </g>
  </g>
  <g id="group3" transform="translate(164.895, 75.9626)" fill="none" clip-path="url(#clippath3)">
   <g id="group4" transform="" fill="none" clip-path="url(#clippath4)">
    <g id="group5" transform="" fill="none" clip-path="url(#clippath5)">
     <path id="shape7" transform="translate(-11.0134, -77.1044)" fill="#03989e" d="M13.7422 0.633319L0 33.8404L21.9805 61.7232C26.7539 61.4458 35.8633 61.6372 45.9883 66.1333C58.668 71.8052 65.5859 80.9732 68.2305 85.0161C74.8984 75.1099 81.5625 65.1997 88.2383 55.3443L124.246 57.8794C119.285 49.0005 103.648 23.9575 71.6758 9.70754C46.7734 -1.42137 24.2891 -0.476056 13.7422 0.633319ZM13.7422 0.633319"/>
    </g>
   </g>
  </g>
  <g id="group6" transform="translate(82.3703, 77.5578)" fill="none" clip-path="url(#clippath6)">
   <g id="group7" transform="" fill="none" clip-path="url(#clippath7)">
    <g id="group8" transform="" fill="none" clip-path="url(#clippath8)">
     <path id="shape8" transform="translate(-10.9807, -77.1132)" fill="#067276" d="M0 86.457L27.1523 110.008L60.5977 98.0273C61.8906 93.4336 64.9297 84.8359 72.4063 76.6953C81.8125 66.4961 92.7422 62.8867 97.3906 61.6094C90.1172 52.168 82.8359 42.6719 75.5625 33.2305L89.4609 0C79.4414 1.89453 50.6914 8.69922 26.9961 34.5078C8.55859 54.5352 2.28906 76.1367 0 86.457ZM0 86.457"/>
    </g>
   </g>
  </g>
  <g id="group9" transform="translate(79.7369, 172.39)" fill="none" clip-path="url(#clippath9)">
   <g id="group10" transform="" fill="none" clip-path="url(#clippath10)">
    <g id="group11" transform="" fill="none" clip-path="url(#clippath11)">
     <path id="shape9" transform="translate(-10.9683, -77.2466)" fill="#055f62" d="M56.8163 110.922L87.41 91.9844L85.91 56.5234C81.8983 53.9297 74.5897 48.4922 69.0155 38.9453C62.0077 26.9609 61.8514 15.4531 62.0467 10.625C50.8631 14.7461 39.6248 18.875 28.4452 23.0508L0.714691 0C-0.422028 10.1211 -2.44937 39.5703 15.1209 69.8164C28.8006 93.293 47.6092 105.668 56.8163 110.922ZM56.8163 110.922"/>
    </g>
   </g>
  </g>
  <g id="group12" transform="translate(142.62, 223.321)" fill="none" clip-path="url(#clippath12)">
   <g id="group13" transform="" fill="none" clip-path="url(#clippath13)">
    <g id="group14" transform="" fill="none" clip-path="url(#clippath14)">
     <path id="shape10" transform="translate(-11.262, -77.1264)" fill="#0dc8cf" d="M123.074 44.7461L114.793 9.76172L80.6602 0C76.9258 3.02734 69.4492 8.17969 58.6172 10.4453C45.0273 13.2656 34.0195 9.84375 29.5273 8.10938C29.8945 20.0195 30.3242 31.9727 30.6953 43.8828L0 62.8828C9.24609 67.168 36.5625 78.3711 70.8789 71.2422C97.4922 65.7227 115.199 51.8164 123.074 44.7461ZM123.074 44.7461"/>
    </g>
   </g>
  </g>
  <path id="shape11" transform="translate(0.787997, 153.788)" fill="#ffffff" d="M0 61.7539L104.184 61.7539L124.32 30.9062L104.184 0L0 0L0 61.7539"/>
  <path id="shape12" transform="translate(0.787997, 165.316)" fill="#ffffff" d="M0 61.7539L104.184 61.7539L124.32 30.9063L104.184 0L0 0L0 61.7539"/>
  <path id="shape13" transform="translate(12.3153, 165.316)" fill="#ffffff" d="M0 61.7539L104.184 61.7539L124.32 30.9063L104.184 0L0 0L0 61.7539"/>
  <path id="shape14" transform="translate(12.3153, 153.788)" fill="#ffffff" d="M0 61.7539L104.184 61.7539L124.32 30.9062L104.184 0L0 0L0 61.7539"/>
  <path id="shape15" transform="translate(16.4325, 159.554)" fill="#ffffff" d="M0 61.75L104.184 61.75L124.32 30.9023L104.184 0L0 0L0 61.75"/>
  <path id="shape16" transform="translate(6.55362, 159.554)" fill="#0bd1d8" d="M0 61.75L104.184 61.75L124.316 30.9023L104.184 0L0 0L0 61.75"/>
  <g id="group15" transform="translate(191.738, 255.557)" fill="none">
   <g id="group16" transform="" fill="none">
    <g id="group17" transform="" fill="none">
     <path id="shape17" transform="translate(-10.9659, -77.1023)" fill="#ffffff" d="M3.92578 0.050782C3.46484 0 3.25391 0 2.76563 0L0 0L0 9.08984L2.70312 9.08984C3.1875 9.08984 3.39844 9.08984 3.85938 9.03906C5.96875 8.77344 7.52344 7.11328 7.52344 4.4375C7.52344 1.72656 6.03516 0.316406 3.92578 0.050782ZM3.74219 8.10156C3.45312 8.15625 3.10937 8.16797 2.63672 8.16797L1.13281 8.16797L1.13281 0.921875L2.70312 0.921875C3.17578 0.921875 3.51953 0.933594 3.80859 0.988282C5.34766 1.23828 6.28516 2.42578 6.28516 4.4375C6.28516 6.58594 5.28516 7.85156 3.74219 8.10156ZM3.74219 8.10156"/>
    </g>
   </g>
  </g>
  <g id="group18" transform="translate(201.078, 255.557)" fill="none">
   <g id="group19" transform="" fill="none">
    <g id="group20" transform="" fill="none">
     <path id="shape18" transform="translate(-10.9659, -77.1023)" fill="#ffffff" d="M6.04688 8.16797L1.13281 8.16797L1.13281 5.00781L5.51953 5.00781L5.51953 4.08203L1.13281 4.08203L1.13281 0.921875L5.91797 0.921875L5.91797 0L0 0L0 9.08984L6.04688 9.08984ZM6.04688 8.16797"/>
    </g>
   </g>
  </g>
  <g id="group21" transform="translate(208.183, 255.374)" fill="none">
   <g id="group22" transform="" fill="none">
    <g id="group23" transform="" fill="none">
     <path id="shape19" transform="translate(-10.9699, -77.1023)" fill="#ffffff" d="M3.45312 0C1.78125 0 0.421875 0.988282 0.421875 2.55469C0.421875 4.05469 1.54297 4.70313 3.14844 5.07031C4.74219 5.44141 5.375 5.94141 5.375 7.04688C5.375 7.99609 4.53516 8.5625 3.49219 8.5625C2.30859 8.5625 1.47656 7.89063 1.21484 6.69141L0 6.69141C0.199218 8.44531 1.46484 9.45703 3.46484 9.45703C5.21875 9.45703 6.58984 8.42969 6.58984 6.83594C6.58984 5.29297 5.58594 4.47656 3.58594 4.01563C2.20312 3.69922 1.63672 3.28125 1.63672 2.29297C1.63672 1.34375 2.39844 0.894532 3.35937 0.894532C4.50781 0.894532 5.17969 1.55469 5.28516 2.69922L6.49609 2.69922C6.32422 1.14453 5.33594 0 3.45312 0ZM3.45312 0"/>
    </g>
   </g>
  </g>
  <g id="group24" transform="translate(216.518, 255.557)" fill="none">
   <g id="group25" transform="" fill="none">
    <g id="group26" transform="" fill="none">
     <path id="shape20" transform="translate(-10.9659, -77.1023)" fill="#ffffff" d="M1.13281 9.08984L1.13281 0L0 0L0 9.08984ZM1.13281 9.08984"/>
    </g>
   </g>
  </g>
  <g id="group27" transform="translate(219.301, 255.374)" fill="none">
   <g id="group28" transform="" fill="none">
    <g id="group29" transform="" fill="none">
     <path id="shape21" transform="translate(-10.9659, -77.1023)" fill="#ffffff" d="M4.63672 4.88672L4.63672 5.80859L6.75781 5.80859C6.75781 7.42969 5.66406 8.5625 4.1875 8.5625C2.39453 8.5625 1.26172 6.95313 1.26172 4.71484C1.26172 2.51563 2.41016 0.894532 4.26563 0.894532C5.78125 0.894532 6.58594 1.77734 6.84766 3.08203L6.875 3.21484L8.00781 3.21484L7.99609 3.08203C7.80859 1.30469 6.59766 0 4.29297 0C1.71094 0 0 2 0 4.76953C0 7.42969 1.47266 9.45703 4.12109 9.45703C5.16406 9.45703 5.96484 9.11719 6.48047 8.53516L6.88672 7.69141L6.88672 9.27344L7.89063 9.27344L7.89063 4.88672ZM4.63672 4.88672"/>
    </g>
   </g>
  </g>
  <g id="group30" transform="translate(229.35, 255.557)" fill="none">
   <g id="group31" transform="" fill="none">
    <g id="group32" transform="" fill="none">
     <path id="shape22" transform="translate(-10.9659, -77.1023)" fill="#ffffff" d="M7.11328 9.08984L7.08984 0L5.98047 0L5.98047 4.54297C5.98047 5.61328 5.99609 6.91797 6.01953 7.98437L1.73828 0L0 0L0 9.08984L1.13281 9.08984L1.13281 4.54297C1.13281 3.47656 1.12109 2.17187 1.09375 1.10547L5.375 9.08984ZM7.11328 9.08984"/>
    </g>
   </g>
  </g>
  <g id="group33" transform="translate(242.559, 180.585)" fill="none">
   <g id="group34" transform="" fill="none">
    <g id="group35" transform="" fill="none">
     <path id="shape23" transform="translate(-10.9659, -77.1023)" fill="#ffffff" d="M3.92578 0.050782C3.46484 0 3.25391 0 2.76563 0L0 0L0 9.08984L2.70312 9.08984C3.1875 9.08984 3.39844 9.08984 3.85938 9.03906C5.96875 8.77344 7.52344 7.11328 7.52344 4.4375C7.52344 1.72656 6.03516 0.316406 3.92578 0.050782ZM3.74219 8.10156C3.45312 8.15625 3.10937 8.16797 2.63672 8.16797L1.13281 8.16797L1.13281 0.921875L2.70312 0.921875C3.17578 0.921875 3.51953 0.933594 3.80859 0.988282C5.34766 1.23828 6.28516 2.42578 6.28516 4.4375C6.28516 6.58594 5.28516 7.85156 3.74219 8.10156ZM3.74219 8.10156"/>
    </g>
   </g>
  </g>
  <g id="group36" transform="translate(251.9, 180.585)" fill="none">
   <g id="group37" transform="" fill="none">
    <g id="group38" transform="" fill="none">
     <path id="shape24" transform="translate(-10.9659, -77.1023)" fill="#ffffff" d="M6.04688 8.16797L1.13281 8.16797L1.13281 5.00781L5.51953 5.00781L5.51953 4.08203L1.13281 4.08203L1.13281 0.921875L5.91797 0.921875L5.91797 0L0 0L0 9.08984L6.04688 9.08984ZM6.04688 8.16797"/>
    </g>
   </g>
  </g>
  <g id="group39" transform="translate(258.773, 180.585)" fill="none">
   <g id="group40" transform="" fill="none">
    <g id="group41" transform="" fill="none">
     <path id="shape25" transform="translate(-11.0001, -77.1023)" fill="#ffffff" d="M4.66406 9.08984L7.92969 0L6.71875 0L3.92578 8.23437L1.22656 0L0 0L3.13672 9.08984ZM4.66406 9.08984"/>
    </g>
   </g>
  </g>
  <g id="group42" transform="translate(267.827, 180.585)" fill="none">
   <g id="group43" transform="" fill="none">
    <g id="group44" transform="" fill="none">
     <path id="shape26" transform="translate(-10.9659, -77.1023)" fill="#ffffff" d="M6.04688 8.16797L1.13281 8.16797L1.13281 5.00781L5.51953 5.00781L5.51953 4.08203L1.13281 4.08203L1.13281 0.921875L5.91797 0.921875L5.91797 0L0 0L0 9.08984L6.04688 9.08984ZM6.04688 8.16797"/>
    </g>
   </g>
  </g>
  <g id="group45" transform="translate(275.561, 180.585)" fill="none">
   <g id="group46" transform="" fill="none">
    <g id="group47" transform="" fill="none">
     <path id="shape27" transform="translate(-10.9659, -77.1023)" fill="#ffffff" d="M6.04688 8.16797L1.13281 8.16797L1.13281 0L0 0L0 9.08984L6.04688 9.08984ZM6.04688 8.16797"/>
    </g>
   </g>
  </g>
  <g id="group48" transform="translate(282.44, 180.402)" fill="none">
   <g id="group49" transform="" fill="none">
    <g id="group50" transform="" fill="none">
     <path id="shape28" transform="translate(-10.9659, -77.1023)" fill="#ffffff" d="M4.29297 0C1.52734 0 0 1.94922 0 4.72656C0 7.49609 1.52734 9.45703 4.29297 9.45703C7.05859 9.45703 8.58594 7.49609 8.58594 4.72656C8.58594 1.94922 7.05859 0 4.29297 0ZM4.29297 8.5625C2.38281 8.5625 1.26172 7.08594 1.26172 4.72656C1.26172 2.35547 2.38281 0.894532 4.29297 0.894532C6.20313 0.894532 7.32422 2.35547 7.32422 4.72656C7.32422 7.08594 6.20313 8.5625 4.29297 8.5625ZM4.29297 8.5625"/>
    </g>
   </g>
  </g>
  <g id="group51" transform="translate(292.844, 180.585)" fill="none">
   <g id="group52" transform="" fill="none">
    <g id="group53" transform="" fill="none">
     <path id="shape29" transform="translate(-10.9659, -77.1023)" fill="#ffffff" d="M4.00391 0.050782C3.59766 0 3.28125 0 2.82031 0L0 0L0 9.08984L1.13281 9.08984L1.13281 5.375L2.82031 5.375C3.28125 5.375 3.59766 5.375 4.00391 5.32031C5.32422 5.15234 6.36328 4.23047 6.36328 2.6875C6.36328 1.14453 5.45313 0.238282 4.00391 0.050782ZM3.94141 4.35937C3.69141 4.41406 3.33594 4.42578 2.92578 4.42578L1.13281 4.42578L1.13281 0.949219L2.92578 0.949219C3.33594 0.949219 3.69141 0.960938 3.94141 1.01562C4.58594 1.16016 5.15234 1.63281 5.15234 2.6875C5.15234 3.74219 4.58594 4.21484 3.94141 4.35937ZM3.94141 4.35937"/>
    </g>
   </g>
  </g>
  <g id="group54" transform="translate(198.622, 105.848)" fill="none">
   <g id="group55" transform="" fill="none">
    <g id="group56" transform="" fill="none">
     <path id="shape30" transform="translate(-10.9659, -77.1023)" fill="#ffffff" d="M7.61328 0.921875L7.61328 0L0 0L0 0.921875L3.23828 0.921875L3.23828 9.08984L4.37109 9.08984L4.37109 0.921875ZM7.61328 0.921875"/>
    </g>
   </g>
  </g>
  <g id="group57" transform="translate(207.551, 105.848)" fill="none">
   <g id="group58" transform="" fill="none">
    <g id="group59" transform="" fill="none">
     <path id="shape31" transform="translate(-10.9659, -77.1023)" fill="#ffffff" d="M6.04688 8.16797L1.13281 8.16797L1.13281 5.00781L5.51953 5.00781L5.51953 4.08203L1.13281 4.08203L1.13281 0.921875L5.91797 0.921875L5.91797 0L0 0L0 9.08984L6.04688 9.08984ZM6.04688 8.16797"/>
    </g>
   </g>
  </g>
  <g id="group60" transform="translate(214.657, 105.665)" fill="none">
   <g id="group61" transform="" fill="none">
    <g id="group62" transform="" fill="none">
     <path id="shape32" transform="translate(-10.9699, -77.1023)" fill="#ffffff" d="M3.45312 0C1.78125 0 0.421875 0.988282 0.421875 2.55469C0.421875 4.05469 1.54297 4.70313 3.14844 5.07031C4.74219 5.44141 5.375 5.94141 5.375 7.04688C5.375 7.99609 4.53516 8.5625 3.49219 8.5625C2.30859 8.5625 1.47656 7.89063 1.21484 6.69141L0 6.69141C0.199218 8.44531 1.46484 9.45703 3.46484 9.45703C5.21875 9.45703 6.58984 8.42969 6.58984 6.83594C6.58984 5.29297 5.58594 4.47656 3.58594 4.01563C2.20312 3.69922 1.63672 3.28125 1.63672 2.29297C1.63672 1.34375 2.39844 0.894532 3.35937 0.894532C4.50781 0.894532 5.17969 1.55469 5.28516 2.69922L6.49609 2.69922C6.32422 1.14453 5.33594 0 3.45312 0ZM3.45312 0"/>
    </g>
   </g>
  </g>
  <g id="group63" transform="translate(222.124, 105.848)" fill="none">
   <g id="group64" transform="" fill="none">
    <g id="group65" transform="" fill="none">
     <path id="shape33" transform="translate(-10.9659, -77.1023)" fill="#ffffff" d="M7.61328 0.921875L7.61328 0L0 0L0 0.921875L3.23828 0.921875L3.23828 9.08984L4.37109 9.08984L4.37109 0.921875ZM7.61328 0.921875"/>
    </g>
   </g>
  </g>
  <g id="group66" transform="translate(103.228, 134.398)" fill="none">
   <g id="group67" transform="" fill="none">
    <g id="group68" transform="" fill="none">
     <path id="shape34" transform="translate(-10.9659, -77.1023)" fill="#ffffff" d="M3.92578 0.050782C3.46484 0 3.25391 0 2.76563 0L0 0L0 9.08984L2.70312 9.08984C3.1875 9.08984 3.39844 9.08984 3.85938 9.03906C5.96875 8.77344 7.52344 7.11328 7.52344 4.4375C7.52344 1.72656 6.03516 0.316406 3.92578 0.050782ZM3.74219 8.10156C3.45312 8.15625 3.10937 8.16797 2.63672 8.16797L1.13281 8.16797L1.13281 0.921875L2.70312 0.921875C3.17578 0.921875 3.51953 0.933594 3.80859 0.988282C5.34766 1.23828 6.28516 2.42578 6.28516 4.4375C6.28516 6.58594 5.28516 7.85156 3.74219 8.10156ZM3.74219 8.10156"/>
    </g>
   </g>
  </g>
  <g id="group69" transform="translate(112.568, 134.398)" fill="none">
   <g id="group70" transform="" fill="none">
    <g id="group71" transform="" fill="none">
     <path id="shape35" transform="translate(-10.9659, -77.1023)" fill="#ffffff" d="M6.04688 8.16797L1.13281 8.16797L1.13281 5.00781L5.51953 5.00781L5.51953 4.08203L1.13281 4.08203L1.13281 0.921875L5.91797 0.921875L5.91797 0L0 0L0 9.08984L6.04688 9.08984ZM6.04688 8.16797"/>
    </g>
   </g>
  </g>
  <g id="group72" transform="translate(120.301, 134.398)" fill="none">
   <g id="group73" transform="" fill="none">
    <g id="group74" transform="" fill="none">
     <path id="shape36" transform="translate(-10.9659, -77.1023)" fill="#ffffff" d="M4.00391 0.050782C3.59766 0 3.28125 0 2.82031 0L0 0L0 9.08984L1.13281 9.08984L1.13281 5.375L2.82031 5.375C3.28125 5.375 3.59766 5.375 4.00391 5.32031C5.32422 5.15234 6.36328 4.23047 6.36328 2.6875C6.36328 1.14453 5.45313 0.238282 4.00391 0.050782ZM3.94141 4.35937C3.69141 4.41406 3.33594 4.42578 2.92578 4.42578L1.13281 4.42578L1.13281 0.949219L2.92578 0.949219C3.33594 0.949219 3.69141 0.960938 3.94141 1.01562C4.58594 1.16016 5.15234 1.63281 5.15234 2.6875C5.15234 3.74219 4.58594 4.21484 3.94141 4.35937ZM3.94141 4.35937"/>
    </g>
   </g>
  </g>
  <g id="group75" transform="translate(128.18, 134.398)" fill="none">
   <g id="group76" transform="" fill="none">
    <g id="group77" transform="" fill="none">
     <path id="shape37" transform="translate(-10.9659, -77.1023)" fill="#ffffff" d="M6.04688 8.16797L1.13281 8.16797L1.13281 0L0 0L0 9.08984L6.04688 9.08984ZM6.04688 8.16797"/>
    </g>
   </g>
  </g>
  <g id="group78" transform="translate(135.06, 134.215)" fill="none">
   <g id="group79" transform="" fill="none">
    <g id="group80" transform="" fill="none">
     <path id="shape38" transform="translate(-10.9659, -77.1023)" fill="#ffffff" d="M4.29297 0C1.52734 0 0 1.94922 0 4.72656C0 7.49609 1.52734 9.45703 4.29297 9.45703C7.05859 9.45703 8.58594 7.49609 8.58594 4.72656C8.58594 1.94922 7.05859 0 4.29297 0ZM4.29297 8.5625C2.38281 8.5625 1.26172 7.08594 1.26172 4.72656C1.26172 2.35547 2.38281 0.894532 4.29297 0.894532C6.20313 0.894532 7.32422 2.35547 7.32422 4.72656C7.32422 7.08594 6.20313 8.5625 4.29297 8.5625ZM4.29297 8.5625"/>
    </g>
   </g>
  </g>
  <g id="group81" transform="translate(144.483, 134.398)" fill="none">
   <g id="group82" transform="" fill="none">
    <g id="group83" transform="" fill="none">
     <path id="shape39" transform="translate(-11.0511, -77.1023)" fill="#ffffff" d="M4.34766 5.50781L7.5625 0L6.28516 0L3.83203 4.41406L1.30469 0L0 0L3.21484 5.50781L3.21484 9.08984L4.34766 9.08984ZM4.34766 5.50781"/>
    </g>
   </g>
  </g>
  <g id="group84" transform="translate(95.0914, 206.765)" fill="none">
   <g id="group85" transform="" fill="none">
    <g id="group86" transform="" fill="none">
     <path id="shape40" transform="translate(-10.9659, -77.1023)" fill="#ffffff" d="M5.98047 6.70703C5.90234 5.79687 5.54687 4.96484 4.80859 4.625C5.65234 4.35937 6.42969 3.67578 6.42969 2.47656C6.42969 0.949219 5.48047 0.222656 4.16406 0.050782C3.75391 0 3.4375 0 2.97656 0L0 0L0 9.08984L1.13281 9.08984L1.13281 5.17578L2.84766 5.17578C3.05859 5.17578 3.28125 5.17578 3.49219 5.19141C4.38672 5.25781 4.74219 5.875 4.84766 6.8125C4.96875 7.92969 5.08594 8.51172 5.33594 9.08984L6.58984 9.08984C6.21875 8.60156 6.08594 7.89062 5.98047 6.70703ZM1.13281 4.25391L1.13281 0.921875L2.97656 0.921875C3.38672 0.921875 3.63672 0.933594 3.88672 0.976563C4.73047 1.10547 5.21875 1.56641 5.21875 2.58203C5.21875 3.60937 4.59766 4.14844 3.75391 4.23047C3.50391 4.25391 3.28125 4.25391 2.87109 4.25391ZM1.13281 4.25391"/>
    </g>
   </g>
  </g>
  <g id="group87" transform="translate(103.246, 206.765)" fill="none">
   <g id="group88" transform="" fill="none">
    <g id="group89" transform="" fill="none">
     <path id="shape41" transform="translate(-10.9659, -77.1023)" fill="#ffffff" d="M6.04688 8.16797L1.13281 8.16797L1.13281 5.00781L5.51953 5.00781L5.51953 4.08203L1.13281 4.08203L1.13281 0.921875L5.91797 0.921875L5.91797 0L0 0L0 9.08984L6.04688 9.08984ZM6.04688 8.16797"/>
    </g>
   </g>
  </g>
  <g id="group90" transform="translate(110.119, 206.765)" fill="none">
   <g id="group91" transform="" fill="none">
    <g id="group92" transform="" fill="none">
     <path id="shape42" transform="translate(-11.0001, -77.1023)" fill="#ffffff" d="M4.66406 9.08984L7.92969 0L6.71875 0L3.92578 8.23437L1.22656 0L0 0L3.13672 9.08984ZM4.66406 9.08984"/>
    </g>
   </g>
  </g>
  <g id="group93" transform="translate(119.173, 206.765)" fill="none">
   <g id="group94" transform="" fill="none">
    <g id="group95" transform="" fill="none">
     <path id="shape43" transform="translate(-10.9659, -77.1023)" fill="#ffffff" d="M1.13281 9.08984L1.13281 0L0 0L0 9.08984ZM1.13281 9.08984"/>
    </g>
   </g>
  </g>
  <g id="group96" transform="translate(122.651, 206.765)" fill="none">
   <g id="group97" transform="" fill="none">
    <g id="group98" transform="" fill="none">
     <path id="shape44" transform="translate(-10.9659, -77.1023)" fill="#ffffff" d="M6.04688 8.16797L1.13281 8.16797L1.13281 5.00781L5.51953 5.00781L5.51953 4.08203L1.13281 4.08203L1.13281 0.921875L5.91797 0.921875L5.91797 0L0 0L0 9.08984L6.04688 9.08984ZM6.04688 8.16797"/>
    </g>
   </g>
  </g>
  <g id="group99" transform="translate(129.432, 206.765)" fill="none">
   <g id="group100" transform="" fill="none">
    <g id="group101" transform="" fill="none">
     <path id="shape45" transform="translate(-10.9865, -77.1023)" fill="#ffffff" d="M12.1055 0L10.9063 0L8.89062 8.08984L6.83594 0.132813L5.30859 0.132813L3.19922 8.07422L1.28906 0L0 0L2.39453 9.08984L3.89844 9.08984L6.03125 1.25L8.08594 9.08984L9.57812 9.08984ZM12.1055 0"/>
    </g>
   </g>
  </g>
  <g id="group102" transform="translate(27.0644, 263.297)" fill="none">
   <g id="group103" transform="" fill="none">
    <g id="group104" transform="" fill="none">
     <path id="shape46" transform="translate(-10.9659, -77.1023)" fill="#ffffff" d="M5.98047 6.70703C5.90234 5.79687 5.54687 4.96484 4.80859 4.625C5.65234 4.35937 6.42969 3.67578 6.42969 2.47656C6.42969 0.949219 5.48047 0.222656 4.16406 0.050782C3.75391 0 3.4375 0 2.97656 0L0 0L0 9.08984L1.13281 9.08984L1.13281 5.17578L2.84766 5.17578C3.05859 5.17578 3.28125 5.17578 3.49219 5.19141C4.38672 5.25781 4.74219 5.875 4.84766 6.8125C4.96875 7.92969 5.08594 8.51172 5.33594 9.08984L6.58984 9.08984C6.21875 8.60156 6.08594 7.89062 5.98047 6.70703ZM1.13281 4.25391L1.13281 0.921875L2.97656 0.921875C3.38672 0.921875 3.63672 0.933594 3.88672 0.976563C4.73047 1.10547 5.21875 1.56641 5.21875 2.58203C5.21875 3.60937 4.59766 4.14844 3.75391 4.23047C3.50391 4.25391 3.28125 4.25391 2.87109 4.25391ZM1.13281 4.25391"/>
    </g>
   </g>
  </g>
  <g id="group105" transform="translate(35.2194, 263.297)" fill="none">
   <g id="group106" transform="" fill="none">
    <g id="group107" transform="" fill="none">
     <path id="shape47" transform="translate(-10.9659, -77.1023)" fill="#ffffff" d="M6.04688 8.16797L1.13281 8.16797L1.13281 5.00781L5.51953 5.00781L5.51953 4.08203L1.13281 4.08203L1.13281 0.921875L5.91797 0.921875L5.91797 0L0 0L0 9.08984L6.04688 9.08984ZM6.04688 8.16797"/>
    </g>
   </g>
  </g>
  <g id="group108" transform="translate(42.2561, 263.114)" fill="none">
   <g id="group109" transform="" fill="none">
    <g id="group110" transform="" fill="none">
     <path id="shape48" transform="translate(-10.9659, -77.1023)" fill="#ffffff" d="M6.92578 8.32422C8.00781 7.53516 8.58594 6.25781 8.58594 4.72656C8.58594 1.94922 7.05859 0 4.29297 0C1.52734 0 0 1.94922 0 4.72656C0 7.49609 1.52734 9.45703 4.29297 9.45703C4.63672 9.45703 4.9375 9.42969 5.22656 9.36719C5.59766 9.28516 5.82031 9.24609 6.19141 9.24609C6.65234 9.24609 7.07422 9.35156 7.96875 9.95703L8.61328 9.17969C8.05859 8.71875 7.53516 8.41797 6.92578 8.32422ZM1.26172 4.72656C1.26172 2.35547 2.38281 0.894532 4.29297 0.894532C6.20312 0.894532 7.32422 2.35547 7.32422 4.72656C7.32422 7.08594 6.20312 8.5625 4.29297 8.5625C2.38281 8.5625 1.26172 7.08594 1.26172 4.72656ZM1.26172 4.72656"/>
    </g>
   </g>
  </g>
  <g id="group111" transform="translate(52.5303, 263.297)" fill="none">
   <g id="group112" transform="" fill="none">
    <g id="group113" transform="" fill="none">
     <path id="shape49" transform="translate(-10.9659, -77.1023)" fill="#ffffff" d="M6.82422 0L5.69141 0L5.69141 5.625C5.69141 5.91406 5.69141 6.19141 5.66406 6.42969C5.55859 7.57422 4.80859 8.37891 3.41406 8.37891C2.01562 8.37891 1.26563 7.57422 1.16016 6.42969C1.13281 6.19141 1.13281 5.91406 1.13281 5.625L1.13281 0L0 0L0 5.73047C0 6.01953 0 6.28516 0.027344 6.54687C0.15625 8.0625 1.1875 9.27344 3.41406 9.27344C5.63672 9.27344 6.66797 8.0625 6.79688 6.54687C6.82422 6.28516 6.82422 6.01953 6.82422 5.73047ZM6.82422 0"/>
    </g>
   </g>
  </g>
  <g id="group114" transform="translate(61.5934, 263.297)" fill="none">
   <g id="group115" transform="" fill="none">
    <g id="group116" transform="" fill="none">
     <path id="shape50" transform="translate(-10.9659, -77.1023)" fill="#ffffff" d="M1.13281 9.08984L1.13281 0L0 0L0 9.08984ZM1.13281 9.08984"/>
    </g>
   </g>
  </g>
  <g id="group117" transform="translate(65.0714, 263.297)" fill="none">
   <g id="group118" transform="" fill="none">
    <g id="group119" transform="" fill="none">
     <path id="shape51" transform="translate(-10.9659, -77.1023)" fill="#ffffff" d="M5.98047 6.70703C5.90234 5.79687 5.54687 4.96484 4.80859 4.625C5.65234 4.35937 6.42969 3.67578 6.42969 2.47656C6.42969 0.949219 5.48047 0.222656 4.16406 0.050782C3.75391 0 3.4375 0 2.97656 0L0 0L0 9.08984L1.13281 9.08984L1.13281 5.17578L2.84766 5.17578C3.05859 5.17578 3.28125 5.17578 3.49219 5.19141C4.38672 5.25781 4.74219 5.875 4.84766 6.8125C4.96875 7.92969 5.08594 8.51172 5.33594 9.08984L6.58984 9.08984C6.21875 8.60156 6.08594 7.89062 5.98047 6.70703ZM1.13281 4.25391L1.13281 0.921875L2.97656 0.921875C3.38672 0.921875 3.63672 0.933594 3.88672 0.976563C4.73047 1.10547 5.21875 1.56641 5.21875 2.58203C5.21875 3.60937 4.59766 4.14844 3.75391 4.23047C3.50391 4.25391 3.28125 4.25391 2.87109 4.25391ZM1.13281 4.25391"/>
    </g>
   </g>
  </g>
  <g id="group120" transform="translate(73.2264, 263.297)" fill="none">
   <g id="group121" transform="" fill="none">
    <g id="group122" transform="" fill="none">
     <path id="shape52" transform="translate(-10.9659, -77.1023)" fill="#ffffff" d="M6.04688 8.16797L1.13281 8.16797L1.13281 5.00781L5.51953 5.00781L5.51953 4.08203L1.13281 4.08203L1.13281 0.921875L5.91797 0.921875L5.91797 0L0 0L0 9.08984L6.04688 9.08984ZM6.04688 8.16797"/>
    </g>
   </g>
  </g>
  <g id="group123" transform="translate(80.9594, 263.297)" fill="none">
   <g id="group124" transform="" fill="none">
    <g id="group125" transform="" fill="none">
     <path id="shape53" transform="translate(-10.9659, -77.1023)" fill="#ffffff" d="M9.06641 0L7.23438 0L4.55859 8.12891L1.87109 0L0 0L0 9.08984L1.13281 9.08984L1.13281 4.41406C1.13281 3.29297 1.13281 2.04297 1.10938 1.05469C1.39844 2.02734 1.82031 3.29297 2.1875 4.375L3.82031 9.08984L5.24609 9.08984L6.85156 4.39844C7.23438 3.29297 7.65625 2.01562 7.95703 1.02734C7.93359 2.01562 7.93359 3.28125 7.93359 4.41406L7.93359 9.08984L9.06641 9.08984ZM9.06641 0"/>
    </g>
   </g>
  </g>
  <g id="group126" transform="translate(92.3674, 263.297)" fill="none">
   <g id="group127" transform="" fill="none">
    <g id="group128" transform="" fill="none">
     <path id="shape54" transform="translate(-10.9659, -77.1023)" fill="#ffffff" d="M6.04688 8.16797L1.13281 8.16797L1.13281 5.00781L5.51953 5.00781L5.51953 4.08203L1.13281 4.08203L1.13281 0.921875L5.91797 0.921875L5.91797 0L0 0L0 9.08984L6.04688 9.08984ZM6.04688 8.16797"/>
    </g>
   </g>
  </g>
  <g id="group129" transform="translate(100.101, 263.297)" fill="none">
   <g id="group130" transform="" fill="none">
    <g id="group131" transform="" fill="none">
     <path id="shape55" transform="translate(-10.9659, -77.1023)" fill="#ffffff" d="M7.11328 9.08984L7.08984 0L5.98047 0L5.98047 4.54297C5.98047 5.61328 5.99609 6.91797 6.01953 7.98437L1.73828 0L0 0L0 9.08984L1.13281 9.08984L1.13281 4.54297C1.13281 3.47656 1.12109 2.17187 1.09375 1.10547L5.375 9.08984ZM7.11328 9.08984"/>
    </g>
   </g>
  </g>
  <g id="group132" transform="translate(108.692, 263.297)" fill="none">
   <g id="group133" transform="" fill="none">
    <g id="group134" transform="" fill="none">
     <path id="shape56" transform="translate(-10.9659, -77.1023)" fill="#ffffff" d="M7.61328 0.921875L7.61328 0L0 0L0 0.921875L3.23828 0.921875L3.23828 9.08984L4.37109 9.08984L4.37109 0.921875ZM7.61328 0.921875"/>
    </g>
   </g>
  </g>
  <g id="group135" transform="translate(116.993, 263.114)" fill="none">
   <g id="group136" transform="" fill="none">
    <g id="group137" transform="" fill="none">
     <path id="shape57" transform="translate(-10.9699, -77.1023)" fill="#ffffff" d="M3.45312 0C1.78125 0 0.421875 0.988282 0.421875 2.55469C0.421875 4.05469 1.54297 4.70313 3.14844 5.07031C4.74219 5.44141 5.375 5.94141 5.375 7.04688C5.375 7.99609 4.53516 8.5625 3.49219 8.5625C2.30859 8.5625 1.47656 7.89063 1.21484 6.69141L0 6.69141C0.199218 8.44531 1.46484 9.45703 3.46484 9.45703C5.21875 9.45703 6.58984 8.42969 6.58984 6.83594C6.58984 5.29297 5.58594 4.47656 3.58594 4.01563C2.20312 3.69922 1.63672 3.28125 1.63672 2.29297C1.63672 1.34375 2.39844 0.894532 3.35937 0.894532C4.50781 0.894532 5.17969 1.55469 5.28516 2.69922L6.49609 2.69922C6.32422 1.14453 5.33594 0 3.45312 0ZM3.45312 0"/>
    </g>
   </g>
  </g>
  <g id="group138" transform="translate(281.974, 263.297)" fill="none">
   <g id="group139" transform="" fill="none">
    <g id="group140" transform="" fill="none">
     <path id="shape58" transform="translate(-10.9659, -77.1023)" fill="#ffffff" d="M6.04688 8.16797L1.13281 8.16797L1.13281 0L0 0L0 9.08984L6.04688 9.08984ZM6.04688 8.16797"/>
    </g>
   </g>
  </g>
  <g id="group141" transform="translate(288.653, 263.297)" fill="none">
   <g id="group142" transform="" fill="none">
    <g id="group143" transform="" fill="none">
     <path id="shape59" transform="translate(-11.0027, -77.1023)" fill="#ffffff" d="M5.625 5.875L6.70313 9.08984L7.92969 9.08984L4.79297 0L3.26563 0L0 9.08984L1.21094 9.08984L2.27734 5.875ZM2.59375 4.95312L4.00391 0.894532L5.32031 4.95312ZM2.59375 4.95312"/>
    </g>
   </g>
  </g>
  <g id="group144" transform="translate(297.889, 263.297)" fill="none">
   <g id="group145" transform="" fill="none">
    <g id="group146" transform="" fill="none">
     <path id="shape60" transform="translate(-10.9659, -77.1023)" fill="#ffffff" d="M6.82422 0L5.69141 0L5.69141 5.625C5.69141 5.91406 5.69141 6.19141 5.66406 6.42969C5.55859 7.57422 4.80859 8.37891 3.41406 8.37891C2.01562 8.37891 1.26563 7.57422 1.16016 6.42969C1.13281 6.19141 1.13281 5.91406 1.13281 5.625L1.13281 0L0 0L0 5.73047C0 6.01953 0 6.28516 0.027344 6.54687C0.15625 8.0625 1.1875 9.27344 3.41406 9.27344C5.63672 9.27344 6.66797 8.0625 6.79688 6.54687C6.82422 6.28516 6.82422 6.01953 6.82422 5.73047ZM6.82422 0"/>
    </g>
   </g>
  </g>
  <g id="group147" transform="translate(306.951, 263.297)" fill="none">
   <g id="group148" transform="" fill="none">
    <g id="group149" transform="" fill="none">
     <path id="shape61" transform="translate(-10.9659, -77.1023)" fill="#ffffff" d="M7.11328 9.08984L7.08984 0L5.98047 0L5.98047 4.54297C5.98047 5.61328 5.99609 6.91797 6.01953 7.98437L1.73828 0L0 0L0 9.08984L1.13281 9.08984L1.13281 4.54297C1.13281 3.47656 1.12109 2.17187 1.09375 1.10547L5.375 9.08984ZM7.11328 9.08984"/>
    </g>
   </g>
  </g>
  <g id="group150" transform="translate(315.716, 263.114)" fill="none">
   <g id="group151" transform="" fill="none">
    <g id="group152" transform="" fill="none">
     <path id="shape62" transform="translate(-10.9659, -77.1023)" fill="#ffffff" d="M4.29297 0C1.71094 0 0 2 0 4.76953C0 7.42969 1.47266 9.45703 4.12109 9.45703C6.51953 9.45703 7.74609 8.02344 7.91406 6.375L7.92969 6.24219L6.79688 6.24219L6.76953 6.375C6.50781 7.67969 5.70312 8.5625 4.1875 8.5625C2.39453 8.5625 1.26172 6.95313 1.26172 4.71484C1.26172 2.51563 2.41016 0.894532 4.26563 0.894532C5.78125 0.894532 6.58594 1.77734 6.84766 3.08203L6.875 3.21484L8.00781 3.21484L7.99609 3.08203C7.80859 1.30469 6.59766 0 4.29297 0ZM4.29297 0"/>
    </g>
   </g>
  </g>
  <g id="group153" transform="translate(325.619, 263.297)" fill="none">
   <g id="group154" transform="" fill="none">
    <g id="group155" transform="" fill="none">
     <path id="shape63" transform="translate(-10.9659, -77.1023)" fill="#ffffff" d="M7.27344 0L6.14063 0L6.14063 4.16406L1.13281 4.16406L1.13281 0L0 0L0 9.08984L1.13281 9.08984L1.13281 5.10937L6.14063 5.10937L6.14063 9.08984L7.27344 9.08984ZM7.27344 0"/>
    </g>
   </g>
  </g>
 </g>
</svg>
