<?xml version="1.0" encoding="UTF-8" standalone="no"?>
<svg
   xmlns:dc="http://purl.org/dc/elements/1.1/"
   xmlns:cc="http://creativecommons.org/ns#"
   xmlns:rdf="http://www.w3.org/1999/02/22-rdf-syntax-ns#"
   xmlns:svg="http://www.w3.org/2000/svg"
   xmlns="http://www.w3.org/2000/svg"
   xmlns:sodipodi="http://sodipodi.sourceforge.net/DTD/sodipodi-0.dtd"
   xmlns:inkscape="http://www.inkscape.org/namespaces/inkscape"
   width="140"
   height="140"
   fill="none"
   class="bi mx-auto"
   viewBox="0 0 48 48"
   version="1.1"
   id="svg3147"
   sodipodi:docname="devsecops_small.svg"
   inkscape:version="1.0.2 (e86c870879, 2021-01-15)">
  <metadata
     id="metadata3153">
    <rdf:RDF>
      <cc:Work
         rdf:about="">
        <dc:format>image/svg+xml</dc:format>
        <dc:type
           rdf:resource="http://purl.org/dc/dcmitype/StillImage" />
      </cc:Work>
    </rdf:RDF>
  </metadata>
  <defs
     id="defs3151" />
  <sodipodi:namedview
     pagecolor="#ffffff"
     bordercolor="#666666"
     borderopacity="1"
     objecttolerance="10"
     gridtolerance="10"
     guidetolerance="10"
     inkscape:pageopacity="0"
     inkscape:pageshadow="2"
     inkscape:window-width="1920"
     inkscape:window-height="1005"
     id="namedview3149"
     showgrid="false"
     inkscape:zoom="5.1071429"
     inkscape:cx="70"
     inkscape:cy="46.503497"
     inkscape:window-x="0"
     inkscape:window-y="0"
     inkscape:window-maximized="1"
     inkscape:current-layer="svg3147" />
  <title
     id="title3139">DevSecOps Image</title>
  <path
     d="M17 16H13C8.02944 16 4 20.0294 4 25C4 29.9706 8.02944 34 13 34C15.4758 34 17.7181 33.0003 19.3453 31.3826C20.9849 29.7525 24 25 24 25C24 25 27.0057 20.2685 28.632 18.6401C30.261 17.009 32.5127 16 35 16C39.9706 16 44 20.0294 44 25C44 29.9706 39.9706 34 35 34H31"
     stroke="currentColor"
     stroke-width="2"
     stroke-linecap="round"
     stroke-linejoin="round"
     id="path3141"
     style="stroke:#2aa198;stroke-opacity:1" />
  <path
     d="M35 30L31 34L35 38"
     stroke="currentColor"
     stroke-width="2"
     stroke-linecap="round"
     stroke-linejoin="round"
     id="path3143"
     style="stroke:#2aa198;stroke-opacity:1" />
  <path
     d="M13 12L17 16L13 20"
     stroke="currentColor"
     stroke-width="2"
     stroke-linecap="round"
     stroke-linejoin="round"
     id="path3145"
     style="stroke:#2aa198;stroke-opacity:1" />
</svg>
