<?xml version="1.0" encoding="UTF-8" standalone="no"?>
<svg
   xmlns:dc="http://purl.org/dc/elements/1.1/"
   xmlns:cc="http://creativecommons.org/ns#"
   xmlns:rdf="http://www.w3.org/1999/02/22-rdf-syntax-ns#"
   xmlns:svg="http://www.w3.org/2000/svg"
   xmlns="http://www.w3.org/2000/svg"
   xmlns:sodipodi="http://sodipodi.sourceforge.net/DTD/sodipodi-0.dtd"
   xmlns:inkscape="http://www.inkscape.org/namespaces/inkscape"
   width="140"
   height="140"
   fill="currentColor"
   class="bi bi-cloud mx-auto"
   viewBox="0 0 448 448"
   version="1.1"
   id="svg1892"
   sodipodi:docname="support.svg"
   inkscape:version="1.0.2 (e86c870879, 2021-01-15)">
  <metadata
     id="metadata1898">
    <rdf:RDF>
      <cc:Work
         rdf:about="">
        <dc:format>image/svg+xml</dc:format>
        <dc:type
           rdf:resource="http://purl.org/dc/dcmitype/StillImage" />
      </cc:Work>
    </rdf:RDF>
  </metadata>
  <defs
     id="defs1896" />
  <sodipodi:namedview
     pagecolor="#ffffff"
     bordercolor="#666666"
     borderopacity="1"
     objecttolerance="10"
     gridtolerance="10"
     guidetolerance="10"
     inkscape:pageopacity="0"
     inkscape:pageshadow="2"
     inkscape:window-width="1366"
     inkscape:window-height="693"
     id="namedview1894"
     showgrid="false"
     inkscape:zoom="3.7785714"
     inkscape:cx="26.994329"
     inkscape:cy="70"
     inkscape:window-x="0"
     inkscape:window-y="0"
     inkscape:window-maximized="1"
     inkscape:current-layer="svg1892" />
  <title
     id="title1884">Support</title>
  <path
     d="M 384,172.4 C 384,83.6 312.4,12 224,12 135.6,12 64,83.6 64,172 c 0,0 0,0 0,0.4 C 28.4,174.4 0,204 0,240 v 8 c 0,37.6 30.4,68 68,68 h 3.6 l 28.4,45.2 c 20,32 54,50.8 91.6,50.8 h 5.6 c 3.6,13.6 16,24 30.8,24 17.6,0 32,-14.4 32,-32 0,-17.6 -14.4,-32 -32,-32 -14.8,0 -27.2,10.4 -30.8,24 h -5.6 c -32,0 -61.2,-16.4 -78,-43.6 L 90.4,316 H 96 c 8.8,0 16,-7.2 16,-16 V 188 c 0,-8.8 -7.2,-16 -16,-16 H 80 C 80,92.4 144.4,28 224,28 c 79.6,0 144,64.4 144,144 h -16 c -8.8,0 -16,7.2 -16,16 v 112 c 0,8.8 7.2,16 16,16 h 28 c 37.6,0 68,-30.4 68,-68 v -8 c 0,-36 -28.4,-65.6 -64,-67.6 z M 228,388 c 8.8,0 16,7.2 16,16 0,8.8 -7.2,16 -16,16 -8.8,0 -16,-7.2 -16,-16 0,-8.8 7.2,-16 16,-16 z M 96,188 V 300 H 68 C 39.2,300 16,276.8 16,248 v -8 c 0,-28.8 23.2,-52 52,-52 z m 336,60 c 0,28.8 -23.2,52 -52,52 H 352 V 188 h 28 c 28.8,0 52,23.2 52,52 z"
     id="path1886"
     style="fill:#839496;fill-opacity:1" />
  <path
     d="M290.4,72.4c-0.8-0.4-2-1.2-3.2-2c-1.2-0.8-2.4-1.6-3.2-2c-3.6-2.4-8.8-1.2-10.8,2.8S272,79.6,276,82 c0.8,0.4,2,1.2,3.2,2s2.4,1.6,3.6,2c1.2,0.8,2.8,1.2,4,1.2c2.8,0,5.2-1.2,6.8-4C295.6,79.6,294.4,74.8,290.4,72.4z"
     id="path1888"
     style="fill:#839496;fill-opacity:1" />
  <path
     d="M224,52c-34,0-66,14.8-88,40.4c-2.8,3.2-2.4,8.4,0.8,11.2c1.6,1.2,3.2,2,5.2,2c2.4,0,4.4-0.8,6-2.8 c19.2-22,46.8-34.8,76-34.8c7.2,0,14.4,0.8,21.6,2.4c4.4,0.8,8.4-2,9.6-6s-2-8.4-6-9.6C240.8,52.8,232.4,52,224,52z"
     id="path1890"
     style="fill:#839496;fill-opacity:1" />
</svg>
