<?xml version="1.0" standalone="no"?>
<!DOCTYPE svg PUBLIC "-//W3C//DTD SVG 20010904//EN" "http://www.w3.org/TR/2001/REC-SVG-20010904/DTD/svg10.dtd">
<!-- Created using Karbon, part of Calligra: http://www.calligra.org/karbon -->
<svg xmlns="http://www.w3.org/2000/svg" xmlns:xlink="http://www.w3.org/1999/xlink" width="420pt" height="235pt">
<defs/>
<g id="layer0">
  <g id="group0" transform="translate(67.0485, 126.694)" fill="none">
   <g id="group1" transform="" fill="none">
    <g id="group2" transform="" fill="none">
     <path id="shape0" transform="translate(32.4787, 0.445367)" fill="#055f62" d="M92.2737 140.987L141.96 116.917L139.524 71.8441C133.009 68.5473 121.139 61.6361 112.086 49.5014C100.705 34.2686 100.451 19.6416 100.768 13.5049C82.6053 18.7431 64.3536 23.991 46.1972 29.2987L1.16071 0C-0.685403 12.8644 -3.97796 50.2958 24.5575 88.7402C46.7741 118.58 77.3208 134.309 92.2737 140.987ZM92.2737 140.987"/>
    </g>
   </g>
  </g>
  <path id="shape1" transform="translate(5.625, 204.918)" fill="#0ccad1" d="M0 82.5763L248.269 82.5763L296.244 41.3247L248.269 0L0 0L0 82.5763"/>
  <path id="shape2" transform="translate(288.601, 208.288)" fill="#015e60" d="M0 79.0102L228.354 79.0102L272.493 39.5401L228.354 0L0 0L0 79.0102"/>
  <g id="group3" transform="translate(225.279, 85.9638)" fill="none">
   <g id="group4" transform="" fill="none">
    <g id="group5" transform="" fill="none">
     <path id="shape3" transform="translate(113.548, 0.621416)" fill="#0ab4bb" d="M104.86 4.13588L46.6668 0L13.9188 37.1981C16.6531 42.8979 20.7767 54.0246 18.6641 67.9366C15.9996 85.4284 5.04984 97.285 0 102.056L55.7197 115.114L69.188 159.715C80.6071 150.258 111.991 121.877 118.722 77.7327C123.981 43.3697 111.699 16.489 104.86 4.13588ZM104.86 4.13588"/>
    </g>
   </g>
  </g>
  <g id="group6" transform="translate(157.708, 6.66146)" fill="none">
   <g id="group7" transform="" fill="none">
    <g id="group8" transform="" fill="none">
     <path id="shape4" transform="translate(78.974, 0.622053)" fill="#03989e" d="M22.3183 0.804979L0 43.0128L35.6979 78.4533C43.4502 78.1007 58.2445 78.3439 74.6882 84.0587C95.281 91.2679 106.516 102.921 110.811 108.06C121.64 95.4684 132.463 82.8721 143.305 70.3454L201.783 73.5676C193.727 62.2821 168.331 30.4512 116.407 12.3388C75.9634 -1.80663 39.4472 -0.605091 22.3183 0.804979ZM22.3183 0.804979"/>
    </g>
   </g>
  </g>
  <g id="group9" transform="translate(69.1587, 8.69009)" fill="none">
   <g id="group10" transform="" fill="none">
    <g id="group11" transform="" fill="none">
     <path id="shape5" transform="translate(33.5486, 0.609892)" fill="#067276" d="M0 109.891L44.0972 139.826L98.415 124.598C100.515 118.759 105.45 107.831 117.593 97.4835C132.869 84.5199 150.62 79.9321 158.17 78.3086C146.357 66.3081 134.531 54.2381 122.719 42.2376L145.291 0C129.019 2.40804 82.3265 11.0572 43.8437 43.8611C13.8998 69.3169 3.71759 96.7735 0 109.891ZM0 109.891"/>
    </g>
   </g>
  </g>
  <g id="group12" transform="translate(133.755, 193.372)" fill="none">
   <g id="group13" transform="" fill="none">
    <g id="group14" transform="" fill="none">
     <path id="shape6" transform="translate(66.3449, 0.591572)" fill="#0fc9cf" d="M199.881 57.2344L186.431 12.4862L130.998 0C124.933 3.87225 112.79 10.4626 95.1984 13.3605C73.1276 16.968 55.2501 12.5911 47.9545 10.3727C48.5507 25.6069 49.2487 40.896 49.8513 56.1302L0 80.4329C15.0163 85.914 59.38 100.244 115.112 91.1254C158.335 84.0653 187.091 66.278 199.881 57.2344ZM199.881 57.2344"/>
    </g>
   </g>
  </g>
  <g id="group15" transform="translate(180.125, 242.519)" fill="none">
   <g id="group16" transform="" fill="none">
    <g id="group17" transform="" fill="none">
     <path id="shape7" transform="translate(90.5361, 0.625)" fill="#ffffff" d="M6.37574 0.0645465C5.62713 0 5.28457 0 4.49158 0L0 0L0 11.5537L4.39006 11.5537C5.17673 11.5537 5.5193 11.5537 6.26791 11.4891C9.69367 11.1515 12.2186 9.04134 12.2186 5.64028C12.2186 2.19455 9.80153 0.402168 6.37574 0.0645465ZM6.07759 10.2974C5.60811 10.367 5.04986 10.3819 4.28223 10.3819L1.83976 10.3819L1.83976 1.17175L4.39006 1.17175C5.15769 1.17175 5.71596 1.18664 6.18542 1.25616C8.68498 1.57391 10.2075 3.08328 10.2075 5.64028C10.2075 8.37106 8.58348 9.97972 6.07759 10.2974ZM6.07759 10.2974"/>
    </g>
   </g>
  </g>
  <g id="group18" transform="translate(190.149, 242.519)" fill="none">
   <g id="group19" transform="" fill="none">
    <g id="group20" transform="" fill="none">
     <path id="shape8" transform="translate(95.6825, 0.625)" fill="#ffffff" d="M9.82055 10.3819L1.83976 10.3819L1.83976 6.36518L8.9641 6.36518L8.9641 5.18847L1.83976 5.18847L1.83976 1.17175L9.6112 1.17175L9.6112 0L0 0L0 11.5537L9.82055 11.5537ZM9.82055 10.3819"/>
    </g>
   </g>
  </g>
  <g id="group21" transform="translate(197.772, 242.286)" fill="none">
   <g id="group22" transform="" fill="none">
    <g id="group23" transform="" fill="none">
     <path id="shape9" transform="translate(99.5919, 0.625)" fill="#ffffff" d="M5.60811 0C2.89287 0 0.685156 1.25616 0.685156 3.24714C0.685156 5.15372 2.50589 5.97791 5.11329 6.44462C7.70166 6.91631 8.72938 7.55183 8.72938 8.95694C8.72938 10.1634 7.36542 10.8834 5.67155 10.8834C3.74931 10.8834 2.39805 10.0294 1.97299 8.50511L0 8.50511C0.323543 10.7344 2.37899 12.0204 5.62713 12.0204C8.47562 12.0204 10.7024 10.7145 10.7024 8.68882C10.7024 6.72763 9.07196 5.68993 5.82382 5.10407C3.57804 4.70189 2.65816 4.17063 2.65816 2.91448C2.65816 1.70797 3.89523 1.13699 5.45585 1.13699C7.321 1.13699 8.41217 1.97609 8.58348 3.43084L10.5501 3.43084C10.271 1.45475 8.66594 0 5.60811 0ZM5.60811 0"/>
    </g>
   </g>
  </g>
  <g id="group24" transform="translate(206.718, 242.519)" fill="none">
   <g id="group25" transform="" fill="none">
    <g id="group26" transform="" fill="none">
     <path id="shape10" transform="translate(104.189, 0.625)" fill="#ffffff" d="M1.83976 11.5537L1.83976 0L0 0L0 11.5537ZM1.83976 11.5537"/>
    </g>
   </g>
  </g>
  <g id="group27" transform="translate(209.704, 242.286)" fill="none">
   <g id="group28" transform="" fill="none">
    <g id="group29" transform="" fill="none">
     <path id="shape11" transform="translate(105.722, 0.625)" fill="#ffffff" d="M7.53037 6.21126L7.53037 7.383L10.9752 7.383C10.9752 9.44351 9.19883 10.8834 6.8008 10.8834C3.88889 10.8834 2.04913 8.83778 2.04913 5.9928C2.04913 3.19749 3.91427 1.13699 6.92768 1.13699C9.38917 1.13699 10.696 2.25909 11.1211 3.91741L11.1655 4.08622L13.0053 4.08622L12.9862 3.91741C12.6817 1.65832 10.7151 0 6.97209 0C2.77868 0 0 2.5421 0 6.06231C0 9.44351 2.3917 12.0204 6.69295 12.0204C8.38681 12.0204 9.68733 11.5884 10.5247 10.8486L11.1845 9.77616L11.1845 11.787L12.8149 11.787L12.8149 6.21126ZM7.53037 6.21126"/>
    </g>
   </g>
  </g>
  <g id="group30" transform="translate(220.488, 242.519)" fill="none">
   <g id="group31" transform="" fill="none">
    <g id="group32" transform="" fill="none">
     <path id="shape12" transform="translate(111.259, 0.625)" fill="#ffffff" d="M11.5525 11.5537L11.5144 0L9.71271 0L9.71271 5.77434C9.71271 7.13476 9.73807 8.79308 9.77614 10.1485L2.82309 0L0 0L0 11.5537L1.83976 11.5537L1.83976 5.77434C1.83976 4.41888 1.82072 2.76056 1.77632 1.4051L8.72938 11.5537ZM11.5525 11.5537"/>
    </g>
   </g>
  </g>
  <g id="group33" transform="translate(241.066, 139.642)" fill="none">
   <g id="group34" transform="" fill="none">
    <g id="group35" transform="" fill="none">
     <path id="shape13" transform="translate(121.824, 0.625)" fill="#ffffff" d="M6.37574 0.0645465C5.62713 0 5.28457 0 4.49158 0L0 0L0 11.5537L4.39006 11.5537C5.17673 11.5537 5.5193 11.5537 6.26791 11.4891C9.69367 11.1515 12.2186 9.04134 12.2186 5.64028C12.2186 2.19455 9.80153 0.402168 6.37574 0.0645465ZM6.07759 10.2974C5.60811 10.367 5.04986 10.3819 4.28223 10.3819L1.83976 10.3819L1.83976 1.17175L4.39006 1.17175C5.15769 1.17175 5.71596 1.18664 6.18542 1.25616C8.68498 1.57391 10.2075 3.08328 10.2075 5.64028C10.2075 8.37106 8.58348 9.97972 6.07759 10.2974ZM6.07759 10.2974"/>
    </g>
   </g>
  </g>
  <g id="group36" transform="translate(251.09, 139.642)" fill="none">
   <g id="group37" transform="" fill="none">
    <g id="group38" transform="" fill="none">
     <path id="shape14" transform="translate(126.97, 0.625)" fill="#ffffff" d="M9.82055 10.3819L1.83976 10.3819L1.83976 6.36518L8.9641 6.36518L8.9641 5.18847L1.83976 5.18847L1.83976 1.17175L9.6112 1.17175L9.6112 0L0 0L0 11.5537L9.82055 11.5537ZM9.82055 10.3819"/>
    </g>
   </g>
  </g>
  <g id="group39" transform="translate(258.454, 139.642)" fill="none">
   <g id="group40" transform="" fill="none">
    <g id="group41" transform="" fill="none">
     <path id="shape15" transform="translate(130.713, 0.625)" fill="#ffffff" d="M7.57477 11.5537L12.8784 0L10.9117 0L6.37574 10.4663L1.99201 0L0 0L5.09426 11.5537ZM7.57477 11.5537"/>
    </g>
   </g>
  </g>
  <g id="group42" transform="translate(268.181, 139.642)" fill="none">
   <g id="group43" transform="" fill="none">
    <g id="group44" transform="" fill="none">
     <path id="shape16" transform="translate(135.745, 0.625)" fill="#ffffff" d="M9.82055 10.3819L1.83976 10.3819L1.83976 6.36518L8.9641 6.36518L8.9641 5.18847L1.83976 5.18847L1.83976 1.17175L9.6112 1.17175L9.6112 0L0 0L0 11.5537L9.82055 11.5537ZM9.82055 10.3819"/>
    </g>
   </g>
  </g>
  <g id="group45" transform="translate(276.481, 139.642)" fill="none">
   <g id="group46" transform="" fill="none">
    <g id="group47" transform="" fill="none">
     <path id="shape17" transform="translate(140.006, 0.625)" fill="#ffffff" d="M9.82055 10.3819L1.83976 10.3819L1.83976 0L0 0L0 11.5537L9.82055 11.5537ZM9.82055 10.3819"/>
    </g>
   </g>
  </g>
  <g id="group48" transform="translate(283.863, 139.409)" fill="none">
   <g id="group49" transform="" fill="none">
    <g id="group50" transform="" fill="none">
     <path id="shape18" transform="translate(143.796, 0.625)" fill="#ffffff" d="M6.97209 0C2.48051 0 0 2.47755 0 6.00769C0 9.52791 2.48051 12.0204 6.97209 12.0204C11.4636 12.0204 13.9442 9.52791 13.9442 6.00769C13.9442 2.47755 11.4636 0 6.97209 0ZM6.97209 10.8834C3.86987 10.8834 2.04913 9.00659 2.04913 6.00769C2.04913 2.99392 3.86987 1.13699 6.97209 1.13699C10.0743 1.13699 11.8951 2.99392 11.8951 6.00769C11.8951 9.00659 10.0743 10.8834 6.97209 10.8834ZM6.97209 10.8834"/>
    </g>
   </g>
  </g>
  <g id="group51" transform="translate(295.028, 139.642)" fill="none">
   <g id="group52" transform="" fill="none">
    <g id="group53" transform="" fill="none">
     <path id="shape19" transform="translate(149.529, 0.625)" fill="#ffffff" d="M6.50263 0.0645465C5.84286 0 5.32898 0 4.58038 0L0 0L0 11.5537L1.83976 11.5537L1.83976 6.8319L4.58038 6.8319C5.32898 6.8319 5.84286 6.8319 6.50263 6.76238C8.64692 6.54888 10.3344 5.37714 10.3344 3.41595C10.3344 1.45475 8.85627 0.302869 6.50263 0.0645465ZM6.40112 5.54098C5.99512 5.6105 5.4178 5.62539 4.75167 5.62539L1.83976 5.62539L1.83976 1.20651L4.75167 1.20651C5.4178 1.20651 5.99512 1.2214 6.40112 1.29091C7.44789 1.47462 8.36776 2.07538 8.36776 3.41595C8.36776 4.75651 7.44789 5.35728 6.40112 5.54098ZM6.40112 5.54098"/>
    </g>
   </g>
  </g>
  <g id="group54" transform="translate(193.916, 44.6467)" fill="none">
   <g id="group55" transform="" fill="none">
    <g id="group56" transform="" fill="none">
     <path id="shape20" transform="translate(97.6166, 0.625)" fill="#ffffff" d="M12.3645 1.17175L12.3645 0L0 0L0 1.17175L5.25919 1.17175L5.25919 11.5537L7.09896 11.5537L7.09896 1.17175ZM12.3645 1.17175"/>
    </g>
   </g>
  </g>
  <g id="group57" transform="translate(203.498, 44.6467)" fill="none">
   <g id="group58" transform="" fill="none">
    <g id="group59" transform="" fill="none">
     <path id="shape21" transform="translate(102.536, 0.625)" fill="#ffffff" d="M9.82055 10.3819L1.83976 10.3819L1.83976 6.36518L8.9641 6.36518L8.9641 5.18847L1.83976 5.18847L1.83976 1.17175L9.6112 1.17175L9.6112 0L0 0L0 11.5537L9.82055 11.5537ZM9.82055 10.3819"/>
    </g>
   </g>
  </g>
  <g id="group60" transform="translate(211.123, 44.4141)" fill="none">
   <g id="group61" transform="" fill="none">
    <g id="group62" transform="" fill="none">
     <path id="shape22" transform="translate(106.446, 0.625)" fill="#ffffff" d="M5.60811 0C2.89287 0 0.685156 1.25616 0.685156 3.24714C0.685156 5.15372 2.50589 5.97791 5.11329 6.44462C7.70166 6.91631 8.72938 7.55183 8.72938 8.95694C8.72938 10.1634 7.36542 10.8834 5.67155 10.8834C3.74931 10.8834 2.39805 10.0294 1.97299 8.50511L0 8.50511C0.323543 10.7344 2.37899 12.0204 5.62713 12.0204C8.47562 12.0204 10.7024 10.7145 10.7024 8.68882C10.7024 6.72763 9.07196 5.68993 5.82382 5.10407C3.57804 4.70189 2.65816 4.17063 2.65816 2.91448C2.65816 1.70797 3.89523 1.13699 5.45585 1.13699C7.321 1.13699 8.41217 1.97609 8.58348 3.43084L10.5501 3.43084C10.271 1.45475 8.66594 0 5.60811 0ZM5.60811 0"/>
    </g>
   </g>
  </g>
  <g id="group63" transform="translate(219.137, 44.6467)" fill="none">
   <g id="group64" transform="" fill="none">
    <g id="group65" transform="" fill="none">
     <path id="shape23" transform="translate(110.565, 0.625)" fill="#ffffff" d="M12.3645 1.17175L12.3645 0L0 0L0 1.17175L5.25919 1.17175L5.25919 11.5537L7.09896 11.5537L7.09896 1.17175ZM12.3645 1.17175"/>
    </g>
   </g>
  </g>
  <g id="group66" transform="translate(91.5472, 80.9352)" fill="none">
   <g id="group67" transform="" fill="none">
    <g id="group68" transform="" fill="none">
     <path id="shape24" transform="translate(45.0593, 0.625)" fill="#ffffff" d="M6.37574 0.0645465C5.62713 0 5.28457 0 4.49158 0L0 0L0 11.5537L4.39006 11.5537C5.17673 11.5537 5.5193 11.5537 6.26791 11.4891C9.69367 11.1515 12.2186 9.04134 12.2186 5.64028C12.2186 2.19455 9.80153 0.402168 6.37574 0.0645465ZM6.07759 10.2974C5.60811 10.367 5.04986 10.3819 4.28223 10.3819L1.83976 10.3819L1.83976 1.17175L4.39006 1.17175C5.15769 1.17175 5.71596 1.18664 6.18542 1.25616C8.68498 1.57391 10.2075 3.08328 10.2075 5.64028C10.2075 8.37106 8.58348 9.97972 6.07759 10.2974ZM6.07759 10.2974"/>
    </g>
   </g>
  </g>
  <g id="group69" transform="translate(101.57, 80.9352)" fill="none">
   <g id="group70" transform="" fill="none">
    <g id="group71" transform="" fill="none">
     <path id="shape25" transform="translate(50.2051, 0.625)" fill="#ffffff" d="M9.82055 10.3819L1.83976 10.3819L1.83976 6.36518L8.9641 6.36518L8.9641 5.18847L1.83976 5.18847L1.83976 1.17175L9.6112 1.17175L9.6112 0L0 0L0 11.5537L9.82055 11.5537ZM9.82055 10.3819"/>
    </g>
   </g>
  </g>
  <g id="group72" transform="translate(109.868, 80.9352)" fill="none">
   <g id="group73" transform="" fill="none">
    <g id="group74" transform="" fill="none">
     <path id="shape26" transform="translate(54.4654, 0.625)" fill="#ffffff" d="M6.50263 0.0645465C5.84286 0 5.32898 0 4.58038 0L0 0L0 11.5537L1.83976 11.5537L1.83976 6.8319L4.58038 6.8319C5.32898 6.8319 5.84286 6.8319 6.50263 6.76238C8.64692 6.54888 10.3344 5.37714 10.3344 3.41595C10.3344 1.45475 8.85627 0.302869 6.50263 0.0645465ZM6.40112 5.54098C5.99512 5.6105 5.4178 5.62539 4.75167 5.62539L1.83976 5.62539L1.83976 1.20651L4.75167 1.20651C5.4178 1.20651 5.99512 1.2214 6.40112 1.29091C7.44789 1.47462 8.36776 2.07538 8.36776 3.41595C8.36776 4.75651 7.44789 5.35728 6.40112 5.54098ZM6.40112 5.54098"/>
    </g>
   </g>
  </g>
  <g id="group75" transform="translate(118.324, 80.9352)" fill="none">
   <g id="group76" transform="" fill="none">
    <g id="group77" transform="" fill="none">
     <path id="shape27" transform="translate(58.8068, 0.625)" fill="#ffffff" d="M9.82055 10.3819L1.83976 10.3819L1.83976 0L0 0L0 11.5537L9.82055 11.5537ZM9.82055 10.3819"/>
    </g>
   </g>
  </g>
  <g id="group78" transform="translate(125.707, 80.7025)" fill="none">
   <g id="group79" transform="" fill="none">
    <g id="group80" transform="" fill="none">
     <path id="shape28" transform="translate(62.5973, 0.625)" fill="#ffffff" d="M6.97209 0C2.48051 0 0 2.47755 0 6.00769C0 9.52791 2.48051 12.0204 6.97209 12.0204C11.4636 12.0204 13.9442 9.52791 13.9442 6.00769C13.9442 2.47755 11.4636 0 6.97209 0ZM6.97209 10.8834C3.86987 10.8834 2.04913 9.00659 2.04913 6.00769C2.04913 2.99392 3.86987 1.13699 6.97209 1.13699C10.0743 1.13699 11.8951 2.99392 11.8951 6.00769C11.8951 9.00659 10.0743 10.8834 6.97209 10.8834ZM6.97209 10.8834"/>
    </g>
   </g>
  </g>
  <g id="group81" transform="translate(135.791, 80.9352)" fill="none">
   <g id="group82" transform="" fill="none">
    <g id="group83" transform="" fill="none">
     <path id="shape29" transform="translate(67.6771, 0.625)" fill="#ffffff" d="M7.06091 7.00071L12.282 0L10.2075 0L6.22349 5.6105L2.1189 0L0 0L5.22113 7.00071L5.22113 11.5537L7.06091 11.5537ZM7.06091 7.00071"/>
    </g>
   </g>
  </g>
  <g id="group84" transform="translate(82.8152, 172.918)" fill="none">
   <g id="group85" transform="" fill="none">
    <g id="group86" transform="" fill="none">
     <path id="shape30" transform="translate(40.5762, 0.625)" fill="#ffffff" d="M9.71271 8.52497C9.58582 7.36811 9.00852 6.31055 7.80949 5.87861C9.17979 5.54098 10.4423 4.6721 10.4423 3.14784C10.4423 1.20651 8.90067 0.283007 6.76274 0.0645465C6.09662 0 5.58273 0 4.83415 0L0 0L0 11.5537L1.83976 11.5537L1.83976 6.57868L4.6248 6.57868C4.96736 6.57868 5.32898 6.57868 5.67155 6.59854C7.12434 6.68294 7.70166 7.46742 7.87295 8.65903C8.0696 10.079 8.25992 10.8188 8.66594 11.5537L10.7024 11.5537C10.0997 10.933 9.884 10.0294 9.71271 8.52497ZM1.83976 5.40693L1.83976 1.17175L4.83415 1.17175C5.50027 1.17175 5.9063 1.18664 6.3123 1.24126C7.68262 1.4051 8.47562 1.99099 8.47562 3.28189C8.47562 4.58769 7.46691 5.27288 6.09662 5.37714C5.69059 5.40693 5.32898 5.40693 4.66285 5.40693ZM1.83976 5.40693"/>
    </g>
   </g>
  </g>
  <g id="group87" transform="translate(91.5664, 172.918)" fill="none">
   <g id="group88" transform="" fill="none">
    <g id="group89" transform="" fill="none">
     <path id="shape31" transform="translate(45.0691, 0.625)" fill="#ffffff" d="M9.82055 10.3819L1.83976 10.3819L1.83976 6.36518L8.9641 6.36518L8.9641 5.18847L1.83976 5.18847L1.83976 1.17175L9.6112 1.17175L9.6112 0L0 0L0 11.5537L9.82055 11.5537ZM9.82055 10.3819"/>
    </g>
   </g>
  </g>
  <g id="group90" transform="translate(98.9302, 172.918)" fill="none">
   <g id="group91" transform="" fill="none">
    <g id="group92" transform="" fill="none">
     <path id="shape32" transform="translate(48.812, 0.625)" fill="#ffffff" d="M7.57477 11.5537L12.8784 0L10.9117 0L6.37574 10.4663L1.99201 0L0 0L5.09426 11.5537ZM7.57477 11.5537"/>
    </g>
   </g>
  </g>
  <g id="group93" transform="translate(108.658, 172.918)" fill="none">
   <g id="group94" transform="" fill="none">
    <g id="group95" transform="" fill="none">
     <path id="shape33" transform="translate(53.8442, 0.625)" fill="#ffffff" d="M1.83976 11.5537L1.83976 0L0 0L0 11.5537ZM1.83976 11.5537"/>
    </g>
   </g>
  </g>
  <g id="group96" transform="translate(112.391, 172.918)" fill="none">
   <g id="group97" transform="" fill="none">
    <g id="group98" transform="" fill="none">
     <path id="shape34" transform="translate(55.7607, 0.625)" fill="#ffffff" d="M9.82055 10.3819L1.83976 10.3819L1.83976 6.36518L8.9641 6.36518L8.9641 5.18847L1.83976 5.18847L1.83976 1.17175L9.6112 1.17175L9.6112 0L0 0L0 11.5537L9.82055 11.5537ZM9.82055 10.3819"/>
    </g>
   </g>
  </g>
  <g id="group99" transform="translate(119.66, 172.918)" fill="none">
   <g id="group100" transform="" fill="none">
    <g id="group101" transform="" fill="none">
     <path id="shape35" transform="translate(59.4701, 0.625)" fill="#ffffff" d="M19.6603 0L17.7125 0L14.439 10.2825L11.1021 0.168812L8.62152 0.168812L5.19577 10.2627L2.09353 0L0 0L3.88889 11.5537L6.33134 11.5537L9.79517 1.58882L13.1321 11.5537L15.5556 11.5537ZM19.6603 0"/>
    </g>
   </g>
  </g>
  <g id="group102" transform="translate(31.867, 243.93)" fill="none">
   <g id="group103" transform="" fill="none">
    <g id="group104" transform="" fill="none">
     <path id="shape36" transform="translate(14.4188, 0.625)" fill="#ffffff" d="M9.71271 8.52497C9.58582 7.36811 9.00852 6.31055 7.80949 5.87861C9.17979 5.54098 10.4423 4.6721 10.4423 3.14784C10.4423 1.20651 8.90067 0.283007 6.76274 0.0645465C6.09662 0 5.58273 0 4.83415 0L0 0L0 11.5537L1.83976 11.5537L1.83976 6.57868L4.6248 6.57868C4.96736 6.57868 5.32898 6.57868 5.67155 6.59854C7.12434 6.68294 7.70166 7.46742 7.87295 8.65903C8.0696 10.079 8.25992 10.8188 8.66594 11.5537L10.7024 11.5537C10.0997 10.933 9.884 10.0294 9.71271 8.52497ZM1.83976 5.40693L1.83976 1.17175L4.83415 1.17175C5.50027 1.17175 5.9063 1.18664 6.3123 1.24126C7.68262 1.4051 8.47562 1.99099 8.47562 3.28189C8.47562 4.58769 7.46691 5.27288 6.09662 5.37714C5.69059 5.40693 5.32898 5.40693 4.66285 5.40693ZM1.83976 5.40693"/>
    </g>
   </g>
  </g>
  <g id="group105" transform="translate(40.6183, 243.93)" fill="none">
   <g id="group106" transform="" fill="none">
    <g id="group107" transform="" fill="none">
     <path id="shape37" transform="translate(18.9118, 0.625)" fill="#ffffff" d="M9.82055 10.3819L1.83976 10.3819L1.83976 6.36518L8.9641 6.36518L8.9641 5.18847L1.83976 5.18847L1.83976 1.17175L9.6112 1.17175L9.6112 0L0 0L0 11.5537L9.82055 11.5537ZM9.82055 10.3819"/>
    </g>
   </g>
  </g>
  <g id="group108" transform="translate(48.1695, 243.697)" fill="none">
   <g id="group109" transform="" fill="none">
    <g id="group110" transform="" fill="none">
     <path id="shape38" transform="translate(22.7887, 0.625)" fill="#ffffff" d="M11.248 10.5805C13.0053 9.57756 13.9442 7.95398 13.9442 6.00769C13.9442 2.47755 11.4636 0 6.97209 0C2.48051 0 0 2.47755 0 6.00769C0 9.52791 2.48051 12.0204 6.97209 12.0204C7.53037 12.0204 8.01885 11.9856 8.48831 11.9062C9.091 11.8019 9.4526 11.7522 10.0553 11.7522C10.8039 11.7522 11.489 11.8863 12.9418 12.6558L13.9886 11.6679C13.0877 11.0819 12.2376 10.6997 11.248 10.5805ZM2.04913 6.00769C2.04913 2.99392 3.86987 1.13699 6.97209 1.13699C10.0743 1.13699 11.8951 2.99392 11.8951 6.00769C11.8951 9.00659 10.0743 10.8834 6.97209 10.8834C3.86987 10.8834 2.04913 9.00659 2.04913 6.00769ZM2.04913 6.00769"/>
    </g>
   </g>
  </g>
  <g id="group111" transform="translate(59.195, 243.93)" fill="none">
   <g id="group112" transform="" fill="none">
    <g id="group113" transform="" fill="none">
     <path id="shape39" transform="translate(28.4493, 0.625)" fill="#ffffff" d="M11.083 0L9.24325 0L9.24325 7.14966C9.24325 7.51706 9.24325 7.8696 9.19883 8.17246C9.02754 9.62721 7.80949 10.65 5.54467 10.65C3.27354 10.65 2.05547 9.62721 1.88418 8.17246C1.83976 7.8696 1.83976 7.51706 1.83976 7.14966L1.83976 0L0 0L0 7.28371C0 7.65112 0 7.98875 0.0444086 8.3214C0.253761 10.2478 1.92859 11.787 5.54467 11.787C9.15444 11.787 10.8293 10.2478 11.0386 8.3214C11.083 7.98875 11.083 7.65112 11.083 7.28371ZM11.083 0"/>
    </g>
   </g>
  </g>
  <g id="group114" transform="translate(68.9208, 243.93)" fill="none">
   <g id="group115" transform="" fill="none">
    <g id="group116" transform="" fill="none">
     <path id="shape40" transform="translate(33.4426, 0.625)" fill="#ffffff" d="M1.83976 11.5537L1.83976 0L0 0L0 11.5537ZM1.83976 11.5537"/>
    </g>
   </g>
  </g>
  <g id="group117" transform="translate(72.6531, 243.93)" fill="none">
   <g id="group118" transform="" fill="none">
    <g id="group119" transform="" fill="none">
     <path id="shape41" transform="translate(35.3588, 0.625)" fill="#ffffff" d="M9.71271 8.52497C9.58582 7.36811 9.00852 6.31055 7.80949 5.87861C9.17979 5.54098 10.4423 4.6721 10.4423 3.14784C10.4423 1.20651 8.90067 0.283007 6.76274 0.0645465C6.09662 0 5.58273 0 4.83415 0L0 0L0 11.5537L1.83976 11.5537L1.83976 6.57868L4.6248 6.57868C4.96736 6.57868 5.32898 6.57868 5.67155 6.59854C7.12434 6.68294 7.70166 7.46742 7.87295 8.65903C8.0696 10.079 8.25992 10.8188 8.66594 11.5537L10.7024 11.5537C10.0997 10.933 9.884 10.0294 9.71271 8.52497ZM1.83976 5.40693L1.83976 1.17175L4.83415 1.17175C5.50027 1.17175 5.9063 1.18664 6.3123 1.24126C7.68262 1.4051 8.47562 1.99099 8.47562 3.28189C8.47562 4.58769 7.46691 5.27288 6.09662 5.37714C5.69059 5.40693 5.32898 5.40693 4.66285 5.40693ZM1.83976 5.40693"/>
    </g>
   </g>
  </g>
  <g id="group120" transform="translate(81.4044, 243.93)" fill="none">
   <g id="group121" transform="" fill="none">
    <g id="group122" transform="" fill="none">
     <path id="shape42" transform="translate(39.8519, 0.625)" fill="#ffffff" d="M9.82055 10.3819L1.83976 10.3819L1.83976 6.36518L8.9641 6.36518L8.9641 5.18847L1.83976 5.18847L1.83976 1.17175L9.6112 1.17175L9.6112 0L0 0L0 11.5537L9.82055 11.5537ZM9.82055 10.3819"/>
    </g>
   </g>
  </g>
  <g id="group123" transform="translate(89.7028, 243.93)" fill="none">
   <g id="group124" transform="" fill="none">
    <g id="group125" transform="" fill="none">
     <path id="shape43" transform="translate(44.1123, 0.625)" fill="#ffffff" d="M14.7245 0L11.7491 0L7.40347 10.3323L3.03878 0L0 0L0 11.5537L1.83976 11.5537L1.83976 5.6105C1.83976 4.18553 1.83976 2.59672 1.80172 1.34056C2.27116 2.57685 2.95631 4.18553 3.55266 5.56084L6.20446 11.5537L8.52002 11.5537L11.1274 5.59064C11.7491 4.18553 12.4343 2.56195 12.9228 1.3058C12.8847 2.56195 12.8847 4.17063 12.8847 5.6105L12.8847 11.5537L14.7245 11.5537ZM14.7245 0"/>
    </g>
   </g>
  </g>
  <g id="group126" transform="translate(101.945, 243.93)" fill="none">
   <g id="group127" transform="" fill="none">
    <g id="group128" transform="" fill="none">
     <path id="shape44" transform="translate(50.3976, 0.625)" fill="#ffffff" d="M9.82055 10.3819L1.83976 10.3819L1.83976 6.36518L8.9641 6.36518L8.9641 5.18847L1.83976 5.18847L1.83976 1.17175L9.6112 1.17175L9.6112 0L0 0L0 11.5537L9.82055 11.5537ZM9.82055 10.3819"/>
    </g>
   </g>
  </g>
  <g id="group129" transform="translate(110.244, 243.93)" fill="none">
   <g id="group130" transform="" fill="none">
    <g id="group131" transform="" fill="none">
     <path id="shape45" transform="translate(54.6584, 0.625)" fill="#ffffff" d="M11.5525 11.5537L11.5144 0L9.71271 0L9.71271 5.77434C9.71271 7.13476 9.73807 8.79308 9.77614 10.1485L2.82309 0L0 0L0 11.5537L1.83976 11.5537L1.83976 5.77434C1.83976 4.41888 1.82072 2.76056 1.77632 1.4051L8.72938 11.5537ZM11.5525 11.5537"/>
    </g>
   </g>
  </g>
  <g id="group132" transform="translate(119.463, 243.93)" fill="none">
   <g id="group133" transform="" fill="none">
    <g id="group134" transform="" fill="none">
     <path id="shape46" transform="translate(59.3916, 0.625)" fill="#ffffff" d="M12.3645 1.17175L12.3645 0L0 0L0 1.17175L5.25919 1.17175L5.25919 11.5537L7.09896 11.5537L7.09896 1.17175ZM12.3645 1.17175"/>
    </g>
   </g>
  </g>
  <g id="group135" transform="translate(129.704, 243.893)" fill="none">
   <g id="group136" transform="" fill="none">
    <g id="group137" transform="" fill="none">
     <path id="shape47" transform="translate(64.6451, 0.625)" fill="#ffffff" d="M5.60813 0C2.89287 0 0.685156 1.25616 0.685156 3.24714C0.685156 5.15372 2.50589 5.97791 5.11329 6.44462C7.70166 6.91631 8.72938 7.55183 8.72938 8.95694C8.72938 10.1634 7.36542 10.8834 5.67155 10.8834C3.74931 10.8834 2.39805 10.0294 1.97299 8.50511L0 8.50511C0.323543 10.7344 2.37899 12.0204 5.62713 12.0204C8.47562 12.0204 10.7024 10.7145 10.7024 8.68882C10.7024 6.72763 9.07196 5.68993 5.82382 5.10407C3.57804 4.70189 2.65816 4.17063 2.65816 2.91448C2.65816 1.70797 3.89523 1.13699 5.45586 1.13699C7.321 1.13699 8.41217 1.97609 8.58348 3.43084L10.5501 3.43084C10.271 1.45475 8.66594 0 5.60813 0ZM5.60813 0"/>
    </g>
   </g>
  </g>
  <g id="group138" transform="translate(297.792, 242.781)" fill="none">
   <g id="group139" transform="" fill="none">
    <g id="group140" transform="" fill="none">
     <path id="shape48" transform="translate(150.948, 0.625)" fill="#ffffff" d="M9.82055 10.3819L1.83976 10.3819L1.83976 0L0 0L0 11.5537L9.82055 11.5537ZM9.82055 10.3819"/>
    </g>
   </g>
  </g>
  <g id="group141" transform="translate(304.947, 242.781)" fill="none">
   <g id="group142" transform="" fill="none">
    <g id="group143" transform="" fill="none">
     <path id="shape49" transform="translate(154.58, 0.625)" fill="#ffffff" d="M9.13539 7.46742L10.8864 11.5537L12.8784 11.5537L7.78412 0L5.30361 0L0 11.5537L1.96665 11.5537L3.69856 7.46742ZM4.21244 6.29566L6.50263 1.13699L8.64056 6.29566ZM4.21244 6.29566"/>
    </g>
   </g>
  </g>
  <g id="group144" transform="translate(314.871, 242.781)" fill="none">
   <g id="group145" transform="" fill="none">
    <g id="group146" transform="" fill="none">
     <path id="shape50" transform="translate(159.716, 0.625)" fill="#ffffff" d="M11.083 0L9.24325 0L9.24325 7.14966C9.24325 7.51706 9.24325 7.8696 9.19883 8.17246C9.02754 9.62721 7.80949 10.65 5.54467 10.65C3.27354 10.65 2.05547 9.62721 1.88418 8.17246C1.83976 7.8696 1.83976 7.51706 1.83976 7.14966L1.83976 0L0 0L0 7.28371C0 7.65112 0 7.98875 0.0444086 8.3214C0.253761 10.2478 1.92859 11.787 5.54467 11.787C9.15444 11.787 10.8293 10.2478 11.0386 8.3214C11.083 7.98875 11.083 7.65112 11.083 7.28371ZM11.083 0"/>
    </g>
   </g>
  </g>
  <g id="group147" transform="translate(324.596, 242.781)" fill="none">
   <g id="group148" transform="" fill="none">
    <g id="group149" transform="" fill="none">
     <path id="shape51" transform="translate(164.709, 0.625)" fill="#ffffff" d="M11.5525 11.5537L11.5144 0L9.71271 0L9.71271 5.77434C9.71271 7.13476 9.73807 8.79308 9.77614 10.1485L2.82309 0L0 0L0 11.5537L1.83976 11.5537L1.83976 5.77434C1.83976 4.41888 1.82072 2.76056 1.77632 1.4051L8.72938 11.5537ZM11.5525 11.5537"/>
    </g>
   </g>
  </g>
  <g id="group150" transform="translate(334.002, 242.548)" fill="none">
   <g id="group151" transform="" fill="none">
    <g id="group152" transform="" fill="none">
     <path id="shape52" transform="translate(169.538, 0.625)" fill="#ffffff" d="M6.97209 0C2.77868 0 0 2.5421 0 6.06231C0 9.44351 2.3917 12.0204 6.69295 12.0204C10.5882 12.0204 12.5802 10.1982 12.853 8.10294L12.8784 7.93414L11.0386 7.93414L10.9942 8.10294C10.5691 9.76127 9.2623 10.8834 6.8008 10.8834C3.88889 10.8834 2.04913 8.83778 2.04913 5.9928C2.04913 3.19749 3.91427 1.13699 6.92768 1.13699C9.38917 1.13699 10.696 2.25909 11.1211 3.91741L11.1655 4.08622L13.0053 4.08622L12.9862 3.91741C12.6817 1.65832 10.7151 0 6.97209 0ZM6.97209 0"/>
    </g>
   </g>
  </g>
  <g id="group153" transform="translate(344.629, 242.781)" fill="none">
   <g id="group154" transform="" fill="none">
    <g id="group155" transform="" fill="none">
     <path id="shape53" transform="translate(174.994, 0.625)" fill="#ffffff" d="M11.8126 0L9.97282 0L9.97282 5.29273L1.83976 5.29273L1.83976 0L0 0L0 11.5537L1.83976 11.5537L1.83976 6.49427L9.97282 6.49427L9.97282 11.5537L11.8126 11.5537ZM11.8126 0"/>
    </g>
   </g>
  </g>
 </g>
</svg>
